<svg width="83" height="54" viewBox="0 0 83 54" fill="none" xmlns="http://www.w3.org/2000/svg">
<path d="M3.72 43.2367C4.084 43.2367 4.42 43.2887 4.728 43.3927C5.036 43.4967 5.3 43.6447 5.52 43.8367C5.744 44.0287 5.918 44.2607 6.042 44.5327C6.166 44.8047 6.228 45.1067 6.228 45.4387C6.228 45.7107 6.192 45.9547 6.12 46.1707C6.052 46.3827 5.952 46.5707 5.82 46.7347C5.692 46.8947 5.536 47.0307 5.352 47.1427C5.168 47.2547 4.962 47.3447 4.734 47.4127C5.294 47.5607 5.714 47.8087 5.994 48.1567C6.278 48.5047 6.42 48.9407 6.42 49.4647C6.42 49.8607 6.344 50.2167 6.192 50.5327C6.044 50.8487 5.84 51.1187 5.58 51.3427C5.32 51.5627 5.016 51.7327 4.668 51.8527C4.324 51.9687 3.954 52.0267 3.558 52.0267C3.102 52.0267 2.712 51.9707 2.388 51.8587C2.064 51.7427 1.79 51.5847 1.566 51.3847C1.342 51.1847 1.158 50.9487 1.014 50.6767C0.87 50.4007 0.748 50.1027 0.648 49.7827L1.104 49.5907C1.188 49.5547 1.272 49.5367 1.356 49.5367C1.436 49.5367 1.506 49.5547 1.566 49.5907C1.63 49.6227 1.678 49.6747 1.71 49.7467C1.718 49.7627 1.726 49.7807 1.734 49.8007C1.742 49.8167 1.75 49.8347 1.758 49.8547C1.814 49.9707 1.882 50.1027 1.962 50.2507C2.042 50.3947 2.15 50.5307 2.286 50.6587C2.422 50.7867 2.59 50.8947 2.79 50.9827C2.994 51.0707 3.246 51.1147 3.546 51.1147C3.846 51.1147 4.108 51.0667 4.332 50.9707C4.56 50.8707 4.748 50.7427 4.896 50.5867C5.048 50.4307 5.162 50.2567 5.238 50.0647C5.314 49.8727 5.352 49.6827 5.352 49.4947C5.352 49.2627 5.32 49.0507 5.256 48.8587C5.196 48.6667 5.084 48.5007 4.92 48.3607C4.76 48.2207 4.536 48.1107 4.248 48.0307C3.964 47.9507 3.598 47.9107 3.15 47.9107V47.1367C3.514 47.1327 3.824 47.0927 4.08 47.0167C4.34 46.9407 4.552 46.8367 4.716 46.7047C4.88 46.5727 4.998 46.4147 5.07 46.2307C5.146 46.0467 5.184 45.8427 5.184 45.6187C5.184 45.3707 5.144 45.1547 5.064 44.9707C4.988 44.7867 4.882 44.6347 4.746 44.5147C4.61 44.3947 4.448 44.3047 4.26 44.2447C4.076 44.1847 3.876 44.1547 3.66 44.1547C3.444 44.1547 3.244 44.1867 3.06 44.2507C2.876 44.3147 2.712 44.4047 2.568 44.5207C2.428 44.6327 2.31 44.7687 2.214 44.9287C2.118 45.0847 2.046 45.2547 1.998 45.4387C1.966 45.5547 1.918 45.6387 1.854 45.6907C1.79 45.7427 1.708 45.7687 1.608 45.7687C1.588 45.7687 1.566 45.7687 1.542 45.7687C1.522 45.7647 1.498 45.7607 1.47 45.7567L0.912 45.6607C0.968 45.2687 1.076 44.9227 1.236 44.6227C1.396 44.3187 1.598 44.0647 1.842 43.8607C2.09 43.6567 2.372 43.5027 2.688 43.3987C3.008 43.2907 3.352 43.2367 3.72 43.2367ZM13.5609 47.6347C13.5609 48.3867 13.4789 49.0387 13.3149 49.5907C13.1549 50.1387 12.9349 50.5927 12.6549 50.9527C12.3749 51.3127 12.0429 51.5807 11.6589 51.7567C11.2789 51.9327 10.8709 52.0207 10.4349 52.0207C9.99494 52.0207 9.58494 51.9327 9.20494 51.7567C8.82894 51.5807 8.50094 51.3127 8.22094 50.9527C7.94094 50.5927 7.72094 50.1387 7.56094 49.5907C7.40094 49.0387 7.32094 48.3867 7.32094 47.6347C7.32094 46.8827 7.40094 46.2307 7.56094 45.6787C7.72094 45.1267 7.94094 44.6707 8.22094 44.3107C8.50094 43.9467 8.82894 43.6767 9.20494 43.5007C9.58494 43.3247 9.99494 43.2367 10.4349 43.2367C10.8709 43.2367 11.2789 43.3247 11.6589 43.5007C12.0429 43.6767 12.3749 43.9467 12.6549 44.3107C12.9349 44.6707 13.1549 45.1267 13.3149 45.6787C13.4789 46.2307 13.5609 46.8827 13.5609 47.6347ZM12.4509 47.6347C12.4509 46.9787 12.3949 46.4287 12.2829 45.9847C12.1749 45.5367 12.0269 45.1767 11.8389 44.9047C11.6549 44.6327 11.4409 44.4387 11.1969 44.3227C10.9529 44.2027 10.6989 44.1427 10.4349 44.1427C10.1709 44.1427 9.91694 44.2027 9.67294 44.3227C9.42894 44.4387 9.21494 44.6327 9.03094 44.9047C8.84694 45.1767 8.69894 45.5367 8.58694 45.9847C8.47894 46.4287 8.42494 46.9787 8.42494 47.6347C8.42494 48.2907 8.47894 48.8407 8.58694 49.2847C8.69894 49.7287 8.84694 50.0867 9.03094 50.3587C9.21494 50.6307 9.42894 50.8267 9.67294 50.9467C9.91694 51.0627 10.1709 51.1207 10.4349 51.1207C10.6989 51.1207 10.9529 51.0627 11.1969 50.9467C11.4409 50.8267 11.6549 50.6307 11.8389 50.3587C12.0269 50.0867 12.1749 49.7287 12.2829 49.2847C12.3949 48.8407 12.4509 48.2907 12.4509 47.6347ZM24.7382 47.6347C24.7382 48.2787 24.6362 48.8647 24.4322 49.3927C24.2282 49.9207 23.9402 50.3727 23.5682 50.7487C23.1962 51.1247 22.7502 51.4167 22.2302 51.6247C21.7102 51.8287 21.1342 51.9307 20.5022 51.9307H17.2862V43.3327H20.5022C21.1342 43.3327 21.7102 43.4367 22.2302 43.6447C22.7502 43.8487 23.1962 44.1407 23.5682 44.5207C23.9402 44.8967 24.2282 45.3487 24.4322 45.8767C24.6362 46.4047 24.7382 46.9907 24.7382 47.6347ZM23.5442 47.6347C23.5442 47.1067 23.4722 46.6347 23.3282 46.2187C23.1842 45.8027 22.9802 45.4507 22.7162 45.1627C22.4522 44.8747 22.1322 44.6547 21.7562 44.5027C21.3802 44.3507 20.9622 44.2747 20.5022 44.2747H18.4562V50.9887H20.5022C20.9622 50.9887 21.3802 50.9127 21.7562 50.7607C22.1322 50.6087 22.4522 50.3907 22.7162 50.1067C22.9802 49.8187 23.1842 49.4667 23.3282 49.0507C23.4722 48.6347 23.5442 48.1627 23.5442 47.6347ZM30.6173 51.9307H30.1433C30.0393 51.9307 29.9553 51.9147 29.8913 51.8827C29.8273 51.8507 29.7853 51.7827 29.7653 51.6787L29.6453 51.1147C29.4853 51.2587 29.3293 51.3887 29.1773 51.5047C29.0253 51.6167 28.8653 51.7127 28.6973 51.7927C28.5293 51.8687 28.3493 51.9267 28.1573 51.9667C27.9693 52.0067 27.7593 52.0267 27.5273 52.0267C27.2913 52.0267 27.0693 51.9947 26.8613 51.9307C26.6573 51.8627 26.4793 51.7627 26.3273 51.6307C26.1753 51.4987 26.0533 51.3327 25.9613 51.1327C25.8733 50.9287 25.8293 50.6887 25.8293 50.4127C25.8293 50.1727 25.8953 49.9427 26.0273 49.7227C26.1593 49.4987 26.3713 49.3007 26.6633 49.1287C26.9593 48.9567 27.3453 48.8167 27.8213 48.7087C28.2973 48.5967 28.8793 48.5327 29.5673 48.5167V48.0427C29.5673 47.5707 29.4653 47.2147 29.2613 46.9747C29.0613 46.7307 28.7633 46.6087 28.3673 46.6087C28.1073 46.6087 27.8873 46.6427 27.7073 46.7107C27.5313 46.7747 27.3773 46.8487 27.2453 46.9327C27.1173 47.0127 27.0053 47.0867 26.9093 47.1547C26.8173 47.2187 26.7253 47.2507 26.6333 47.2507C26.5613 47.2507 26.4973 47.2327 26.4413 47.1967C26.3893 47.1567 26.3473 47.1087 26.3153 47.0527L26.1233 46.7107C26.4593 46.3867 26.8213 46.1447 27.2093 45.9847C27.5973 45.8247 28.0273 45.7447 28.4993 45.7447C28.8393 45.7447 29.1413 45.8007 29.4053 45.9127C29.6693 46.0247 29.8913 46.1807 30.0713 46.3807C30.2513 46.5807 30.3873 46.8227 30.4793 47.1067C30.5713 47.3907 30.6173 47.7027 30.6173 48.0427V51.9307ZM27.8453 51.2767C28.0333 51.2767 28.2053 51.2587 28.3613 51.2227C28.5173 51.1827 28.6633 51.1287 28.7993 51.0607C28.9393 50.9887 29.0713 50.9027 29.1953 50.8027C29.3233 50.7027 29.4473 50.5887 29.5673 50.4607V49.1947C29.0753 49.2107 28.6573 49.2507 28.3133 49.3147C27.9693 49.3747 27.6893 49.4547 27.4733 49.5547C27.2573 49.6547 27.0993 49.7727 26.9993 49.9087C26.9033 50.0447 26.8553 50.1967 26.8553 50.3647C26.8553 50.5247 26.8813 50.6627 26.9333 50.7787C26.9853 50.8947 27.0553 50.9907 27.1433 51.0667C27.2313 51.1387 27.3353 51.1927 27.4553 51.2287C27.5753 51.2607 27.7053 51.2767 27.8453 51.2767ZM33.8299 53.7247C33.7939 53.8047 33.7479 53.8687 33.6919 53.9167C33.6399 53.9647 33.5579 53.9887 33.4459 53.9887H32.6539L33.7639 51.5767L31.2559 45.8527H32.1799C32.2719 45.8527 32.3439 45.8767 32.3959 45.9247C32.4479 45.9687 32.4859 46.0187 32.5099 46.0747L34.1359 49.9027C34.1719 49.9907 34.2019 50.0787 34.2259 50.1667C34.2539 50.2547 34.2779 50.3447 34.2979 50.4367C34.3259 50.3447 34.3539 50.2547 34.3819 50.1667C34.4099 50.0787 34.4419 49.9887 34.4779 49.8967L36.0559 46.0747C36.0799 46.0107 36.1199 45.9587 36.1759 45.9187C36.2359 45.8747 36.2999 45.8527 36.3679 45.8527H37.2199L33.8299 53.7247ZM41.6685 46.8547C41.6205 46.9427 41.5465 46.9867 41.4465 46.9867C41.3865 46.9867 41.3185 46.9647 41.2425 46.9207C41.1665 46.8767 41.0725 46.8287 40.9605 46.7767C40.8525 46.7207 40.7225 46.6707 40.5705 46.6267C40.4185 46.5787 40.2385 46.5547 40.0305 46.5547C39.8505 46.5547 39.6885 46.5787 39.5445 46.6267C39.4005 46.6707 39.2765 46.7327 39.1725 46.8127C39.0725 46.8927 38.9945 46.9867 38.9385 47.0947C38.8865 47.1987 38.8605 47.3127 38.8605 47.4367C38.8605 47.5927 38.9045 47.7227 38.9925 47.8267C39.0845 47.9307 39.2045 48.0207 39.3525 48.0967C39.5005 48.1727 39.6685 48.2407 39.8565 48.3007C40.0445 48.3567 40.2365 48.4187 40.4325 48.4867C40.6325 48.5507 40.8265 48.6227 41.0145 48.7027C41.2025 48.7827 41.3705 48.8827 41.5185 49.0027C41.6665 49.1227 41.7845 49.2707 41.8725 49.4467C41.9645 49.6187 42.0105 49.8267 42.0105 50.0707C42.0105 50.3507 41.9605 50.6107 41.8605 50.8507C41.7605 51.0867 41.6125 51.2927 41.4165 51.4687C41.2205 51.6407 40.9805 51.7767 40.6965 51.8767C40.4125 51.9767 40.0845 52.0267 39.7125 52.0267C39.2885 52.0267 38.9045 51.9587 38.5605 51.8227C38.2165 51.6827 37.9245 51.5047 37.6845 51.2887L37.9365 50.8807C37.9685 50.8287 38.0065 50.7887 38.0505 50.7607C38.0945 50.7327 38.1525 50.7187 38.2245 50.7187C38.2965 50.7187 38.3725 50.7467 38.4525 50.8027C38.5325 50.8587 38.6285 50.9207 38.7405 50.9887C38.8565 51.0567 38.9945 51.1187 39.1545 51.1747C39.3185 51.2307 39.5225 51.2587 39.7665 51.2587C39.9745 51.2587 40.1565 51.2327 40.3125 51.1807C40.4685 51.1247 40.5985 51.0507 40.7025 50.9587C40.8065 50.8667 40.8825 50.7607 40.9305 50.6407C40.9825 50.5207 41.0085 50.3927 41.0085 50.2567C41.0085 50.0887 40.9625 49.9507 40.8705 49.8427C40.7825 49.7307 40.6645 49.6367 40.5165 49.5607C40.3685 49.4807 40.1985 49.4127 40.0065 49.3567C39.8185 49.2967 39.6245 49.2347 39.4245 49.1707C39.2285 49.1067 39.0345 49.0347 38.8425 48.9547C38.6545 48.8707 38.4865 48.7667 38.3385 48.6427C38.1905 48.5187 38.0705 48.3667 37.9785 48.1867C37.8905 48.0027 37.8465 47.7807 37.8465 47.5207C37.8465 47.2887 37.8945 47.0667 37.9905 46.8547C38.0865 46.6387 38.2265 46.4507 38.4105 46.2907C38.5945 46.1267 38.8205 45.9967 39.0885 45.9007C39.3565 45.8047 39.6625 45.7567 40.0065 45.7567C40.4065 45.7567 40.7645 45.8207 41.0805 45.9487C41.4005 46.0727 41.6765 46.2447 41.9085 46.4647L41.6685 46.8547ZM47.1579 48.3427V51.9307H45.9999V43.3327H48.4299C48.9739 43.3327 49.4439 43.3887 49.8399 43.5007C50.2359 43.6087 50.5619 43.7667 50.8179 43.9747C51.0779 44.1827 51.2699 44.4347 51.3939 44.7307C51.5179 45.0227 51.5799 45.3507 51.5799 45.7147C51.5799 46.0187 51.5319 46.3027 51.4359 46.5667C51.3399 46.8307 51.1999 47.0687 51.0159 47.2807C50.8359 47.4887 50.6139 47.6667 50.3499 47.8147C50.0899 47.9627 49.7939 48.0747 49.4619 48.1507C49.6059 48.2347 49.7339 48.3567 49.8459 48.5167L52.3539 51.9307H51.3219C51.1099 51.9307 50.9539 51.8487 50.8539 51.6847L48.6219 48.6127C48.5539 48.5167 48.4799 48.4487 48.3999 48.4087C48.3199 48.3647 48.1999 48.3427 48.0399 48.3427H47.1579ZM47.1579 47.4967H48.3759C48.7159 47.4967 49.0139 47.4567 49.2699 47.3767C49.5299 47.2927 49.7459 47.1767 49.9179 47.0287C50.0939 46.8767 50.2259 46.6967 50.3139 46.4887C50.4019 46.2807 50.4459 46.0507 50.4459 45.7987C50.4459 45.2867 50.2759 44.9007 49.9359 44.6407C49.5999 44.3807 49.0979 44.2507 48.4299 44.2507H47.1579V47.4967ZM55.8406 45.7567C56.2046 45.7567 56.5406 45.8187 56.8486 45.9427C57.1566 46.0627 57.4226 46.2387 57.6466 46.4707C57.8706 46.6987 58.0446 46.9827 58.1686 47.3227C58.2966 47.6587 58.3606 48.0427 58.3606 48.4747C58.3606 48.6427 58.3426 48.7547 58.3066 48.8107C58.2706 48.8667 58.2026 48.8947 58.1026 48.8947H54.0586C54.0666 49.2787 54.1186 49.6127 54.2146 49.8967C54.3106 50.1807 54.4426 50.4187 54.6106 50.6107C54.7786 50.7987 54.9786 50.9407 55.2106 51.0367C55.4426 51.1287 55.7026 51.1747 55.9906 51.1747C56.2586 51.1747 56.4886 51.1447 56.6806 51.0847C56.8766 51.0207 57.0446 50.9527 57.1846 50.8807C57.3246 50.8087 57.4406 50.7427 57.5326 50.6827C57.6286 50.6187 57.7106 50.5867 57.7786 50.5867C57.8666 50.5867 57.9346 50.6207 57.9826 50.6887L58.2826 51.0787C58.1506 51.2387 57.9926 51.3787 57.8086 51.4987C57.6246 51.6147 57.4266 51.7107 57.2146 51.7867C57.0066 51.8627 56.7906 51.9187 56.5666 51.9547C56.3426 51.9947 56.1206 52.0147 55.9006 52.0147C55.4806 52.0147 55.0926 51.9447 54.7366 51.8047C54.3846 51.6607 54.0786 51.4527 53.8186 51.1807C53.5626 50.9047 53.3626 50.5647 53.2186 50.1607C53.0746 49.7567 53.0026 49.2927 53.0026 48.7687C53.0026 48.3447 53.0666 47.9487 53.1946 47.5807C53.3266 47.2127 53.5146 46.8947 53.7586 46.6267C54.0026 46.3547 54.3006 46.1427 54.6526 45.9907C55.0046 45.8347 55.4006 45.7567 55.8406 45.7567ZM55.8646 46.5427C55.3486 46.5427 54.9426 46.6927 54.6466 46.9927C54.3506 47.2887 54.1666 47.7007 54.0946 48.2287H57.4006C57.4006 47.9807 57.3666 47.7547 57.2986 47.5507C57.2306 47.3427 57.1306 47.1647 56.9986 47.0167C56.8666 46.8647 56.7046 46.7487 56.5126 46.6687C56.3246 46.5847 56.1086 46.5427 55.8646 46.5427ZM59.9676 51.9307V46.7647L59.2956 46.6867C59.2116 46.6667 59.1416 46.6367 59.0856 46.5967C59.0336 46.5527 59.0076 46.4907 59.0076 46.4107V45.9727H59.9676V45.3847C59.9676 45.0367 60.0156 44.7287 60.1116 44.4607C60.2116 44.1887 60.3516 43.9607 60.5316 43.7767C60.7156 43.5887 60.9356 43.4467 61.1916 43.3507C61.4476 43.2547 61.7356 43.2067 62.0556 43.2067C62.3276 43.2067 62.5796 43.2467 62.8116 43.3267L62.7876 43.8607C62.7836 43.9407 62.7496 43.9887 62.6856 44.0047C62.6216 44.0207 62.5316 44.0287 62.4156 44.0287H62.2296C62.0456 44.0287 61.8776 44.0527 61.7256 44.1007C61.5776 44.1487 61.4496 44.2267 61.3416 44.3347C61.2336 44.4427 61.1496 44.5847 61.0896 44.7607C61.0336 44.9367 61.0056 45.1547 61.0056 45.4147V45.9727H62.7636V46.7467H61.0416V51.9307H59.9676ZM64.6945 45.8527V49.7287C64.6945 50.1887 64.8005 50.5447 65.0125 50.7967C65.2245 51.0487 65.5445 51.1747 65.9725 51.1747C66.2845 51.1747 66.5785 51.1007 66.8545 50.9527C67.1305 50.8047 67.3845 50.5987 67.6165 50.3347V45.8527H68.6845V51.9307H68.0485C67.8965 51.9307 67.8005 51.8567 67.7605 51.7087L67.6765 51.0547C67.4125 51.3467 67.1165 51.5827 66.7885 51.7627C66.4605 51.9387 66.0845 52.0267 65.6605 52.0267C65.3285 52.0267 65.0345 51.9727 64.7785 51.8647C64.5265 51.7527 64.3145 51.5967 64.1425 51.3967C63.9705 51.1967 63.8405 50.9547 63.7525 50.6707C63.6685 50.3867 63.6265 50.0727 63.6265 49.7287V45.8527H64.6945ZM70.4385 51.9307V45.8527H71.0745C71.2265 45.8527 71.3225 45.9267 71.3625 46.0747L71.4465 46.7347C71.7105 46.4427 72.0045 46.2067 72.3285 46.0267C72.6565 45.8467 73.0345 45.7567 73.4625 45.7567C73.7945 45.7567 74.0865 45.8127 74.3385 45.9247C74.5945 46.0327 74.8065 46.1887 74.9745 46.3927C75.1465 46.5927 75.2765 46.8347 75.3645 47.1187C75.4525 47.4027 75.4965 47.7167 75.4965 48.0607V51.9307H74.4285V48.0607C74.4285 47.6007 74.3225 47.2447 74.1105 46.9927C73.9025 46.7367 73.5825 46.6087 73.1505 46.6087C72.8345 46.6087 72.5385 46.6847 72.2625 46.8367C71.9905 46.9887 71.7385 47.1947 71.5065 47.4547V51.9307H70.4385ZM81.3845 51.9307C81.2325 51.9307 81.1365 51.8567 81.0965 51.7087L81.0005 50.9707C80.7405 51.2867 80.4425 51.5407 80.1065 51.7327C79.7745 51.9207 79.3925 52.0147 78.9605 52.0147C78.6125 52.0147 78.2965 51.9487 78.0125 51.8167C77.7285 51.6807 77.4865 51.4827 77.2865 51.2227C77.0865 50.9627 76.9325 50.6387 76.8245 50.2507C76.7165 49.8627 76.6625 49.4167 76.6625 48.9127C76.6625 48.4647 76.7225 48.0487 76.8425 47.6647C76.9625 47.2767 77.1345 46.9407 77.3585 46.6567C77.5865 46.3727 77.8625 46.1507 78.1865 45.9907C78.5105 45.8267 78.8785 45.7447 79.2905 45.7447C79.6625 45.7447 79.9805 45.8087 80.2445 45.9367C80.5085 46.0607 80.7445 46.2367 80.9525 46.4647V43.0927H82.0205V51.9307H81.3845ZM79.3145 51.1507C79.6625 51.1507 79.9665 51.0707 80.2265 50.9107C80.4905 50.7507 80.7325 50.5247 80.9525 50.2327V47.2927C80.7565 47.0287 80.5405 46.8447 80.3045 46.7407C80.0725 46.6327 79.8145 46.5787 79.5305 46.5787C78.9625 46.5787 78.5265 46.7807 78.2225 47.1847C77.9185 47.5887 77.7665 48.1647 77.7665 48.9127C77.7665 49.3087 77.8005 49.6487 77.8685 49.9327C77.9365 50.2127 78.0365 50.4447 78.1685 50.6287C78.3005 50.8087 78.4625 50.9407 78.6545 51.0247C78.8465 51.1087 79.0665 51.1507 79.3145 51.1507Z" fill="#0C6253"/>
<path fill-rule="evenodd" clip-rule="evenodd" d="M37.7402 4.68459V8.67944H40.1668V4.68459L44.1622 0.1875H42.2379L37.7402 4.68459ZM48.6593 17.1781C50.2779 17.2478 51.7551 17.8714 52.9059 18.8637V26.8765H25V5.04004H36.5263V9.28601C36.5263 9.62144 36.7975 9.89258 37.133 9.89258H40.7729C41.1084 9.89258 41.3795 9.62144 41.3795 9.28601V5.04004H52.9059V11.651C51.8552 11.3016 50.7359 11.1057 49.5693 11.1057H48.6593V8.07287C48.6593 7.84541 48.5326 7.63736 48.3305 7.53364C48.1273 7.42931 47.8846 7.4469 47.7002 7.57974L39.2071 13.6454C39.0476 13.7588 38.9529 13.9426 38.9529 14.1385C38.9529 14.3345 39.0476 14.5183 39.2071 14.6323L47.7002 20.698C47.8846 20.8302 48.1273 20.8466 48.3305 20.7441C48.5326 20.6397 48.6593 20.4317 48.6593 20.2042V17.1781ZM26.2133 25.6633H33.4931V24.4502H26.2133V25.6633ZM26.2133 23.237H33.4931V22.0239H26.2133V23.237ZM48.0526 12.3194H49.5692C54.7542 12.3194 58.9723 16.5368 58.9723 21.7211C58.9723 25.2447 57.0243 28.3212 54.1482 29.931C55.629 28.4486 56.5457 26.4032 56.5457 24.1474C56.5457 19.6321 52.8718 15.9588 48.3559 15.9588H48.0526C47.7171 15.9588 47.4459 16.2299 47.4459 16.5653V19.0262L40.6035 14.1391L47.4459 9.25195V11.7128C47.4459 12.0482 47.7171 12.3194 48.0526 12.3194ZM25.8574 3.8274L29.4973 0.1875H40.5214L36.8815 3.8274H25.8574ZM42.2363 3.8274H53.2604L56.9003 0.1875H45.8762L42.2363 3.8274ZM57.759 1.04492V13.2284L54.1191 11.4087V4.68432L57.759 1.04492Z" fill="#0C6253"/>
</svg>
