<svg width="65" height="65" viewBox="0 0 65 65" fill="none" xmlns="http://www.w3.org/2000/svg">
<circle cx="32.4755" cy="32.8661" r="31.8856" fill="#EEEEEE"/>
<g clip-path="url(#clip0_701_1557)">
<path d="M38.3579 34.6712C38.3579 37.7527 38.3028 40.836 38.3774 43.9149C38.4258 45.9036 37.1473 47.0981 35.4083 47.0345C32.9787 46.9514 30.5448 47.015 28.1127 47.0133C26.4593 47.0133 25.398 45.9168 25.398 44.1996C25.3918 37.8155 25.3887 31.4314 25.3887 25.0473C25.3929 23.3301 26.4559 22.2363 28.111 22.2363C30.6282 22.2363 33.1449 22.2363 35.6611 22.2363C37.2882 22.2363 38.3503 23.331 38.3537 25.0269C38.363 28.2429 38.3579 31.4571 38.3579 34.6712ZM31.8733 25.6105C32.3823 25.6105 32.8913 25.6167 33.3952 25.6105C33.8049 25.6035 34.0289 25.4045 34.0196 25.0597C34.0094 24.6476 33.7532 24.4964 33.402 24.4938C32.3874 24.4849 31.3725 24.4831 30.3573 24.4885C30.0019 24.4885 29.7525 24.6485 29.7321 25.0517C29.7151 25.4001 29.962 25.607 30.393 25.6114C30.8858 25.615 31.3796 25.6105 31.8733 25.6105ZM32.9447 43.6267C32.9427 43.3299 32.8281 43.0461 32.6259 42.8371C32.4237 42.6282 32.1504 42.5112 31.8656 42.5117C31.581 42.5172 31.3097 42.6388 31.1101 42.8504C30.9104 43.062 30.7982 43.3467 30.7976 43.6435C30.8055 43.9399 30.9229 44.2217 31.1254 44.43C31.3279 44.6383 31.5998 44.7569 31.8843 44.7611C32.1692 44.7572 32.441 44.6354 32.6398 44.4227C32.8387 44.21 32.9483 43.9237 32.9447 43.6267Z" fill="#0C6253"/>
</g>
<rect x="40.7422" y="26.9609" width="2.3619" height="14.1714" rx="0.996425" fill="#0C6253"/>
<rect x="21.8477" y="41.1328" width="2.3619" height="14.1714" rx="0.996425" transform="rotate(180 21.8477 41.1328)" fill="#0C6253"/>
<rect x="45.4648" y="29.3242" width="2.3619" height="9.44759" rx="0.996425" fill="#0C6253"/>
<rect x="17.123" y="38.7715" width="2.3619" height="9.44759" rx="0.996425" transform="rotate(180 17.123 38.7715)" fill="#0C6253"/>
<defs>
<clipPath id="clip0_701_1557">
<rect width="12.9904" height="24.7999" fill="white" transform="translate(25.3906 22.2383)"/>
</clipPath>
</defs>
</svg>
