<svg width="65" height="65" viewBox="0 0 65 65" fill="none" xmlns="http://www.w3.org/2000/svg">
<circle cx="32.8407" cy="32.868" r="31.8856" fill="#EEEEEE"/>
<path d="M44.4725 38.238C44.2067 38.2492 44.1072 38.1385 44.0207 37.893C43.8114 37.2813 43.5668 36.6823 43.2882 36.099C43.1664 35.8507 43.171 35.7102 43.3718 35.5494C43.6833 35.3001 43.991 35.0453 44.2745 34.8146L43.0827 33.5573L42.1289 34.7402C41.6343 34.4798 41.2643 34.2511 40.8683 34.0846C40.4871 33.9246 39.9191 33.9432 39.7258 33.6726C39.5147 33.3806 39.657 32.8439 39.6086 32.4171C39.5911 32.354 39.5581 32.2963 39.5127 32.2492C39.4672 32.2021 39.4107 32.1671 39.3483 32.1474C38.9523 32.1157 38.5516 32.1343 38.0933 32.1343V33.6642C37.4509 33.4782 36.8783 33.3508 36.3428 33.135C36.0137 33.0039 35.8305 33.042 35.587 33.2885C33.5706 35.328 31.5263 37.3406 29.5182 39.3875C28.7829 40.1362 28.1238 40.9574 27.4219 41.7479L28.5096 42.8723C28.8322 42.5263 29.1296 42.1896 29.4485 41.8772C29.5275 41.8 29.7135 41.7302 29.7915 41.7702C30.3242 42.0436 30.8402 42.3468 31.3868 42.6547L30.6952 43.8683L32.0106 44.6272C32.2384 44.2357 32.4355 43.8702 32.6614 43.5242C32.7302 43.4201 32.9049 43.2889 32.9951 43.3131C33.4544 43.4321 33.9024 43.5977 34.3896 43.7595C34.2669 44.258 34.1516 44.7304 34.028 45.2364L35.4801 45.6186C35.6362 45.0718 35.7785 44.5742 35.9161 44.0887L38.0952 44.3222C38.0952 44.524 38.0952 44.6942 38.0952 44.8597C38.0952 45.8586 38.0952 45.8418 39.0992 45.8613C39.4915 45.8688 39.6811 45.7823 39.6263 45.3517C39.5947 45.108 39.6384 44.8551 39.6207 44.6077C39.6012 44.338 39.7239 44.2487 39.9693 44.1631C40.5668 43.96 41.1503 43.718 41.7161 43.4387C41.9774 43.3066 42.1177 43.3103 42.3055 43.5168C42.5723 43.8088 42.8633 44.0748 43.0446 44.2608L44.2531 43.2759C43.9306 42.969 43.6572 42.6956 43.37 42.4389C43.1841 42.2696 43.1599 42.1366 43.2835 41.8874C43.5672 41.3061 43.8155 40.7083 44.0272 40.0971C44.1202 39.846 44.2243 39.7502 44.4846 39.7605C44.9281 39.7763 45.3734 39.7605 45.8373 39.7605V38.2334C45.3631 38.2334 44.9178 38.2204 44.4725 38.238ZM33.4776 40.7314C33.181 40.4273 32.8529 40.0887 32.5266 39.7521C32.8631 39.3987 33.1773 39.0657 33.525 38.7021L34.463 39.7874L33.4776 40.7314ZM34.9325 37.6437L34.0623 36.7314L35.1203 35.7195L35.9663 36.6496L34.9325 37.6437ZM38.8956 41.2587C38.4442 41.2668 38.0006 41.1402 37.6214 40.8951C37.2422 40.6499 36.9446 40.2972 36.7666 39.8822C36.5887 39.4671 36.5383 39.0083 36.6221 38.5645C36.7058 38.1207 36.9199 37.7119 37.2369 37.3902C37.5539 37.0686 37.9594 36.8488 38.4019 36.7588C38.8443 36.6687 39.3035 36.7126 39.7209 36.8848C40.1383 37.057 40.495 37.3497 40.7453 37.7256C40.9957 38.1014 41.1285 38.5434 41.1267 38.9951C41.1247 39.5896 40.89 40.1597 40.473 40.5833C40.056 41.0069 39.4898 41.2503 38.8956 41.2615V41.2587Z" fill="#0C6253"/>
<path d="M21.5452 29.486C21.5526 29.593 21.4039 29.7734 21.2886 29.8153C20.9019 29.9566 20.4966 30.0506 20.0494 30.1761C20.1805 30.6793 20.2995 31.1368 20.4315 31.6409L21.9189 31.2614L22.4144 32.8425L21.0413 33.6544L21.8027 34.9657L23.0252 34.2728C23.3608 34.8866 23.6704 35.4521 24.0478 36.1375L22.8467 37.141L23.8293 38.2235C24.336 37.8515 24.852 37.5548 25.2666 37.1494C27.6595 34.7881 30.0245 32.397 32.41 30.0282C32.6405 29.7995 32.6368 29.6237 32.5327 29.341C32.3291 28.783 32.1859 28.2101 31.9916 27.5525H33.4865V26.0478C33.0403 26.0478 32.6378 26.072 32.2408 26.0338C32.1625 26.0162 32.089 25.9816 32.0255 25.9324C31.9621 25.8832 31.9102 25.8207 31.8736 25.7492C31.5934 25.1336 31.3359 24.5086 31.101 23.8743C31.0518 23.7413 31.0685 23.5023 31.1559 23.4093C31.4273 23.1471 31.7119 22.8988 32.0084 22.6653L30.8826 21.42C30.6102 21.7186 30.3555 22.0348 30.058 22.3035C29.9914 22.347 29.9158 22.3749 29.837 22.3852C29.7581 22.3955 29.678 22.3879 29.6025 22.3631C28.9833 22.1315 28.3865 21.8339 27.7608 21.6265C27.494 21.5335 27.4252 21.4265 27.4345 21.1745C27.4503 20.7458 27.4345 20.3161 27.4345 19.8809H25.9108C25.9108 20.3217 25.8969 20.7244 25.9108 21.1261C25.9248 21.4238 25.8179 21.5363 25.5222 21.6339C24.9241 21.8354 24.3415 22.0803 23.7791 22.3668C23.5346 22.4895 23.3924 22.4895 23.2279 22.2849C22.9787 21.9734 22.7193 21.6693 22.4934 21.3968L21.2356 22.5621C21.5619 22.8457 21.8631 23.1127 22.1653 23.3731C22.3447 23.5256 22.3596 23.6595 22.2489 23.8902C21.9626 24.4863 21.7107 25.0992 21.4848 25.7232C21.403 25.9492 21.3221 26.058 21.0729 26.0487C20.663 26.0329 20.2521 26.0487 19.8477 26.0487V27.5907H21.3435C21.4197 28.2575 21.5034 28.8704 21.5452 29.486ZM25.9145 33.128L24.8845 32.1226L25.9164 31.1415L26.9102 32.1794L25.9145 33.128ZM29.9511 30.5639L28.8894 31.5804L27.9151 30.6067L28.9861 29.5837L29.9511 30.5639ZM26.6778 24.5188C27.1286 24.5209 27.5687 24.6566 27.9425 24.9088C28.3162 25.1611 28.6068 25.5186 28.7774 25.936C28.9481 26.3535 28.9911 26.8122 28.9012 27.2541C28.8113 27.6961 28.5924 28.1014 28.2721 28.4189C27.9519 28.7364 27.5448 28.9518 27.1022 29.0378C26.6596 29.1238 26.2015 29.0766 25.7858 28.9021C25.37 28.7276 25.0153 28.4338 24.7665 28.0576C24.5178 27.6815 24.386 27.24 24.3881 26.789C24.3936 25.5539 25.4516 24.5086 26.6787 24.5179L26.6778 24.5188Z" fill="#0C6253"/>
<path d="M44.7452 19.9258L19.8809 44.8037L20.896 45.7579L45.7176 20.9097L44.7452 19.9258Z" fill="#0C6253"/>
<path d="M38.8365 38.2426C38.7394 38.2419 38.6431 38.2609 38.5534 38.2982C38.4637 38.3355 38.3824 38.3906 38.3144 38.46C38.2464 38.5294 38.193 38.6118 38.1575 38.7023C38.122 38.7928 38.1051 38.8895 38.1077 38.9866C38.1052 39.0875 38.1234 39.1879 38.1609 39.2816C38.1985 39.3753 38.2548 39.4604 38.3263 39.5316C38.3978 39.6029 38.483 39.6588 38.5768 39.6961C38.6706 39.7333 38.771 39.7511 38.8719 39.7483C39.0675 39.741 39.2529 39.6593 39.3903 39.5198C39.5276 39.3803 39.6066 39.1935 39.6109 38.9978C39.6117 38.8967 39.5921 38.7965 39.5532 38.7033C39.5144 38.61 39.457 38.5256 39.3847 38.455C39.3123 38.3845 39.2265 38.3293 39.1323 38.2928C39.0381 38.2563 38.9375 38.2392 38.8365 38.2426Z" fill="#0C6253"/>
<path d="M26.6476 27.561C26.8496 27.5638 27.0448 27.4876 27.1915 27.3487C27.3382 27.2097 27.4249 27.0189 27.4331 26.8169C27.4346 26.7168 27.4161 26.6174 27.3786 26.5246C27.3411 26.4317 27.2854 26.3473 27.2148 26.2764C27.1442 26.2054 27.0601 26.1492 26.9675 26.1113C26.8748 26.0733 26.7756 26.0543 26.6755 26.0553C26.5795 26.0514 26.4837 26.0668 26.3938 26.1004C26.3038 26.1341 26.2215 26.1854 26.1516 26.2513C26.0817 26.3172 26.0257 26.3965 25.9868 26.4843C25.948 26.5722 25.927 26.6669 25.9252 26.763C25.9191 26.8631 25.933 26.9635 25.9662 27.0581C25.9994 27.1527 26.0511 27.2398 26.1184 27.3142C26.1857 27.3885 26.2672 27.4486 26.3581 27.491C26.449 27.5334 26.5474 27.5572 26.6476 27.561Z" fill="#0C6253"/>
</svg>
