<svg width="65" height="65" viewBox="0 0 65 65" fill="none" xmlns="http://www.w3.org/2000/svg">
<circle cx="32.7977" cy="32.868" r="31.8856" fill="#EEEEEE"/>
<path d="M31.2724 18.957C27.516 18.957 24.6337 22.3502 25.2779 26.0816C25.3594 26.5537 25.8084 26.8682 26.2773 26.7869C26.7481 26.7056 27.0639 26.2582 26.9826 25.7875C26.5219 23.1183 28.5809 20.6869 31.2724 20.6869C33.9558 20.6869 36.0186 23.1068 35.5643 25.7769C35.4841 26.2479 35.801 26.6945 36.2718 26.7747C36.7428 26.8551 37.1895 26.538 37.2696 26.067C37.9019 22.3506 35.0334 18.957 31.2724 18.957Z" fill="#0C6253"/>
<path d="M40.4784 32.8311C39.8254 31.5499 38.2752 31.0566 37.0186 31.6778C36.4262 30.5155 35.0729 29.9776 33.8563 30.4V25.1035C33.8563 23.6916 32.7218 22.512 31.3268 22.4737C29.8652 22.4323 28.654 23.6029 28.654 25.0677V38.3927L27.6379 37.3286C26.6626 36.3076 25.0295 36.2357 23.9972 37.1689C22.9079 38.1535 22.8536 39.83 23.8567 40.8837L29.6965 47.1125C30.5109 47.9808 31.6608 48.4791 32.8515 48.4791H39.8948C42.2795 48.4791 44.2195 46.539 44.2195 44.1543V35.1588C44.2195 33.2367 42.1921 31.9837 40.4784 32.8311Z" fill="#0C6253"/>
</svg>
