<svg width="72" height="52" viewBox="0 0 72 52" fill="none" xmlns="http://www.w3.org/2000/svg">
<path d="M6.342 40.7487V41.6967H2.214V44.7027H5.742V45.6507H2.214V49.3467H1.044V40.7487H6.342ZM7.30959 49.3467V43.2687H7.92159C8.03759 43.2687 8.11759 43.2907 8.16159 43.3347C8.20559 43.3787 8.23559 43.4547 8.25159 43.5627L8.32359 44.5107C8.53159 44.0867 8.78759 43.7567 9.09159 43.5207C9.39959 43.2807 9.75959 43.1607 10.1716 43.1607C10.3396 43.1607 10.4916 43.1807 10.6276 43.2207C10.7636 43.2567 10.8896 43.3087 11.0056 43.3767L10.8676 44.1747C10.8396 44.2747 10.7776 44.3247 10.6816 44.3247C10.6256 44.3247 10.5396 44.3067 10.4236 44.2707C10.3076 44.2307 10.1456 44.2107 9.93759 44.2107C9.56559 44.2107 9.25359 44.3187 9.00159 44.5347C8.75359 44.7507 8.54559 45.0647 8.37759 45.4767V49.3467H7.30959ZM14.5554 43.1727C14.9194 43.1727 15.2554 43.2347 15.5634 43.3587C15.8714 43.4787 16.1374 43.6547 16.3614 43.8867C16.5854 44.1147 16.7594 44.3987 16.8834 44.7387C17.0114 45.0747 17.0754 45.4587 17.0754 45.8907C17.0754 46.0587 17.0574 46.1707 17.0214 46.2267C16.9854 46.2827 16.9174 46.3107 16.8174 46.3107H12.7734C12.7814 46.6947 12.8334 47.0287 12.9294 47.3127C13.0254 47.5967 13.1574 47.8347 13.3254 48.0267C13.4934 48.2147 13.6934 48.3567 13.9254 48.4527C14.1574 48.5447 14.4174 48.5907 14.7054 48.5907C14.9734 48.5907 15.2034 48.5607 15.3954 48.5007C15.5914 48.4367 15.7594 48.3687 15.8994 48.2967C16.0394 48.2247 16.1554 48.1587 16.2474 48.0987C16.3434 48.0347 16.4254 48.0027 16.4934 48.0027C16.5814 48.0027 16.6494 48.0367 16.6974 48.1047L16.9974 48.4947C16.8654 48.6547 16.7074 48.7947 16.5234 48.9147C16.3394 49.0307 16.1414 49.1267 15.9294 49.2027C15.7214 49.2787 15.5054 49.3347 15.2814 49.3707C15.0574 49.4107 14.8354 49.4307 14.6154 49.4307C14.1954 49.4307 13.8074 49.3607 13.4514 49.2207C13.0994 49.0767 12.7934 48.8687 12.5334 48.5967C12.2774 48.3207 12.0774 47.9807 11.9334 47.5767C11.7894 47.1727 11.7174 46.7087 11.7174 46.1847C11.7174 45.7607 11.7814 45.3647 11.9094 44.9967C12.0414 44.6287 12.2294 44.3107 12.4734 44.0427C12.7174 43.7707 13.0154 43.5587 13.3674 43.4067C13.7194 43.2507 14.1154 43.1727 14.5554 43.1727ZM14.5794 43.9587C14.0634 43.9587 13.6574 44.1087 13.3614 44.4087C13.0654 44.7047 12.8814 45.1167 12.8094 45.6447H16.1154C16.1154 45.3967 16.0814 45.1707 16.0134 44.9667C15.9454 44.7587 15.8454 44.5807 15.7134 44.4327C15.5814 44.2807 15.4194 44.1647 15.2274 44.0847C15.0394 44.0007 14.8234 43.9587 14.5794 43.9587ZM20.8484 43.1727C21.2124 43.1727 21.5484 43.2347 21.8564 43.3587C22.1644 43.4787 22.4304 43.6547 22.6544 43.8867C22.8784 44.1147 23.0524 44.3987 23.1764 44.7387C23.3044 45.0747 23.3684 45.4587 23.3684 45.8907C23.3684 46.0587 23.3504 46.1707 23.3144 46.2267C23.2784 46.2827 23.2104 46.3107 23.1104 46.3107H19.0664C19.0744 46.6947 19.1264 47.0287 19.2224 47.3127C19.3184 47.5967 19.4504 47.8347 19.6184 48.0267C19.7864 48.2147 19.9864 48.3567 20.2184 48.4527C20.4504 48.5447 20.7104 48.5907 20.9984 48.5907C21.2664 48.5907 21.4964 48.5607 21.6884 48.5007C21.8844 48.4367 22.0524 48.3687 22.1924 48.2967C22.3324 48.2247 22.4484 48.1587 22.5404 48.0987C22.6364 48.0347 22.7184 48.0027 22.7864 48.0027C22.8744 48.0027 22.9424 48.0367 22.9904 48.1047L23.2904 48.4947C23.1584 48.6547 23.0004 48.7947 22.8164 48.9147C22.6324 49.0307 22.4344 49.1267 22.2224 49.2027C22.0144 49.2787 21.7984 49.3347 21.5744 49.3707C21.3504 49.4107 21.1284 49.4307 20.9084 49.4307C20.4884 49.4307 20.1004 49.3607 19.7444 49.2207C19.3924 49.0767 19.0864 48.8687 18.8264 48.5967C18.5704 48.3207 18.3704 47.9807 18.2264 47.5767C18.0824 47.1727 18.0104 46.7087 18.0104 46.1847C18.0104 45.7607 18.0744 45.3647 18.2024 44.9967C18.3344 44.6287 18.5224 44.3107 18.7664 44.0427C19.0104 43.7707 19.3084 43.5587 19.6604 43.4067C20.0124 43.2507 20.4084 43.1727 20.8484 43.1727ZM20.8724 43.9587C20.3564 43.9587 19.9504 44.1087 19.6544 44.4087C19.3584 44.7047 19.1744 45.1167 19.1024 45.6447H22.4084C22.4084 45.3967 22.3744 45.1707 22.3064 44.9667C22.2384 44.7587 22.1384 44.5807 22.0064 44.4327C21.8744 44.2807 21.7124 44.1647 21.5204 44.0847C21.3324 44.0007 21.1164 43.9587 20.8724 43.9587ZM31.6277 42.0927C31.5917 42.1527 31.5537 42.1987 31.5137 42.2307C31.4737 42.2587 31.4217 42.2727 31.3577 42.2727C31.2897 42.2727 31.2097 42.2387 31.1177 42.1707C31.0297 42.1027 30.9157 42.0287 30.7757 41.9487C30.6397 41.8647 30.4737 41.7887 30.2777 41.7207C30.0857 41.6527 29.8517 41.6187 29.5757 41.6187C29.3157 41.6187 29.0857 41.6547 28.8857 41.7267C28.6857 41.7947 28.5177 41.8887 28.3817 42.0087C28.2497 42.1287 28.1497 42.2707 28.0817 42.4347C28.0137 42.5947 27.9797 42.7687 27.9797 42.9567C27.9797 43.1967 28.0377 43.3967 28.1537 43.5567C28.2737 43.7127 28.4297 43.8467 28.6217 43.9587C28.8177 44.0707 29.0377 44.1687 29.2817 44.2527C29.5297 44.3327 29.7817 44.4167 30.0377 44.5047C30.2977 44.5927 30.5497 44.6927 30.7937 44.8047C31.0417 44.9127 31.2617 45.0507 31.4537 45.2187C31.6497 45.3867 31.8057 45.5927 31.9217 45.8367C32.0417 46.0807 32.1017 46.3807 32.1017 46.7367C32.1017 47.1127 32.0377 47.4667 31.9097 47.7987C31.7817 48.1267 31.5937 48.4127 31.3457 48.6567C31.1017 48.9007 30.7997 49.0927 30.4397 49.2327C30.0837 49.3727 29.6777 49.4427 29.2217 49.4427C28.6657 49.4427 28.1577 49.3427 27.6977 49.1427C27.2417 48.9387 26.8517 48.6647 26.5277 48.3207L26.8637 47.7687C26.8957 47.7247 26.9337 47.6887 26.9777 47.6607C27.0257 47.6287 27.0777 47.6127 27.1337 47.6127C27.2177 47.6127 27.3137 47.6587 27.4217 47.7507C27.5297 47.8387 27.6637 47.9367 27.8237 48.0447C27.9877 48.1527 28.1837 48.2527 28.4117 48.3447C28.6437 48.4327 28.9257 48.4767 29.2577 48.4767C29.5337 48.4767 29.7797 48.4387 29.9957 48.3627C30.2117 48.2867 30.3937 48.1807 30.5417 48.0447C30.6937 47.9047 30.8097 47.7387 30.8897 47.5467C30.9697 47.3547 31.0097 47.1407 31.0097 46.9047C31.0097 46.6447 30.9497 46.4327 30.8297 46.2687C30.7137 46.1007 30.5597 45.9607 30.3677 45.8487C30.1757 45.7367 29.9557 45.6427 29.7077 45.5667C29.4637 45.4867 29.2117 45.4067 28.9517 45.3267C28.6957 45.2427 28.4437 45.1467 28.1957 45.0387C27.9517 44.9307 27.7337 44.7907 27.5417 44.6187C27.3497 44.4467 27.1937 44.2327 27.0737 43.9767C26.9577 43.7167 26.8997 43.3967 26.8997 43.0167C26.8997 42.7127 26.9577 42.4187 27.0737 42.1347C27.1937 41.8507 27.3657 41.5987 27.5897 41.3787C27.8137 41.1587 28.0897 40.9827 28.4177 40.8507C28.7497 40.7187 29.1297 40.6527 29.5577 40.6527C30.0377 40.6527 30.4757 40.7287 30.8717 40.8807C31.2677 41.0327 31.6137 41.2527 31.9097 41.5407L31.6277 42.0927ZM33.419 49.3467V40.5087H34.487V44.0847C34.747 43.8087 35.035 43.5887 35.351 43.4247C35.667 43.2567 36.031 43.1727 36.443 43.1727C36.775 43.1727 37.067 43.2287 37.319 43.3407C37.575 43.4487 37.787 43.6047 37.955 43.8087C38.127 44.0087 38.257 44.2507 38.345 44.5347C38.433 44.8187 38.477 45.1327 38.477 45.4767V49.3467H37.409V45.4767C37.409 45.0167 37.303 44.6607 37.091 44.4087C36.883 44.1527 36.563 44.0247 36.131 44.0247C35.815 44.0247 35.519 44.1007 35.243 44.2527C34.971 44.4047 34.719 44.6107 34.487 44.8707V49.3467H33.419ZM41.2749 43.2687V49.3467H40.2069V43.2687H41.2749ZM41.5149 41.3607C41.5149 41.4647 41.4929 41.5627 41.4489 41.6547C41.4089 41.7427 41.3529 41.8227 41.2809 41.8947C41.2129 41.9627 41.1329 42.0167 41.0409 42.0567C40.9489 42.0967 40.8509 42.1167 40.7469 42.1167C40.6429 42.1167 40.5449 42.0967 40.4529 42.0567C40.3649 42.0167 40.2849 41.9627 40.2129 41.8947C40.1449 41.8227 40.0909 41.7427 40.0509 41.6547C40.0109 41.5627 39.9909 41.4647 39.9909 41.3607C39.9909 41.2567 40.0109 41.1587 40.0509 41.0667C40.0909 40.9707 40.1449 40.8887 40.2129 40.8207C40.2849 40.7487 40.3649 40.6927 40.4529 40.6527C40.5449 40.6127 40.6429 40.5927 40.7469 40.5927C40.8509 40.5927 40.9489 40.6127 41.0409 40.6527C41.1329 40.6927 41.2129 40.7487 41.2809 40.8207C41.3529 40.8887 41.4089 40.9707 41.4489 41.0667C41.4929 41.1587 41.5149 41.2567 41.5149 41.3607ZM43.1573 51.4047V43.2687H43.7933C43.9453 43.2687 44.0413 43.3427 44.0813 43.4907L44.1713 44.2107C44.4313 43.8947 44.7273 43.6407 45.0593 43.4487C45.3953 43.2567 45.7813 43.1607 46.2173 43.1607C46.5653 43.1607 46.8813 43.2287 47.1653 43.3647C47.4493 43.4967 47.6913 43.6947 47.8913 43.9587C48.0913 44.2187 48.2453 44.5427 48.3533 44.9307C48.4613 45.3187 48.5153 45.7647 48.5153 46.2687C48.5153 46.7167 48.4553 47.1347 48.3353 47.5227C48.2153 47.9067 48.0433 48.2407 47.8193 48.5247C47.5953 48.8047 47.3193 49.0267 46.9913 49.1907C46.6673 49.3507 46.3013 49.4307 45.8933 49.4307C45.5173 49.4307 45.1953 49.3687 44.9273 49.2447C44.6633 49.1207 44.4293 48.9447 44.2253 48.7167V51.4047H43.1573ZM45.8633 44.0247C45.5153 44.0247 45.2093 44.1047 44.9453 44.2647C44.6853 44.4247 44.4453 44.6507 44.2253 44.9427V47.8827C44.4213 48.1467 44.6353 48.3327 44.8673 48.4407C45.1033 48.5487 45.3653 48.6027 45.6533 48.6027C46.2173 48.6027 46.6513 48.4007 46.9553 47.9967C47.2593 47.5927 47.4113 47.0167 47.4113 46.2687C47.4113 45.8727 47.3753 45.5327 47.3033 45.2487C47.2353 44.9647 47.1353 44.7327 47.0033 44.5527C46.8713 44.3687 46.7093 44.2347 46.5173 44.1507C46.3253 44.0667 46.1073 44.0247 45.8633 44.0247ZM49.7783 51.4047V43.2687H50.4143C50.5663 43.2687 50.6623 43.3427 50.7023 43.4907L50.7923 44.2107C51.0523 43.8947 51.3483 43.6407 51.6803 43.4487C52.0163 43.2567 52.4023 43.1607 52.8383 43.1607C53.1863 43.1607 53.5023 43.2287 53.7863 43.3647C54.0703 43.4967 54.3123 43.6947 54.5123 43.9587C54.7123 44.2187 54.8663 44.5427 54.9743 44.9307C55.0823 45.3187 55.1363 45.7647 55.1363 46.2687C55.1363 46.7167 55.0763 47.1347 54.9563 47.5227C54.8363 47.9067 54.6643 48.2407 54.4403 48.5247C54.2163 48.8047 53.9403 49.0267 53.6123 49.1907C53.2883 49.3507 52.9223 49.4307 52.5143 49.4307C52.1383 49.4307 51.8163 49.3687 51.5483 49.2447C51.2843 49.1207 51.0503 48.9447 50.8463 48.7167V51.4047H49.7783ZM52.4843 44.0247C52.1363 44.0247 51.8303 44.1047 51.5663 44.2647C51.3063 44.4247 51.0663 44.6507 50.8463 44.9427V47.8827C51.0423 48.1467 51.2563 48.3327 51.4883 48.4407C51.7243 48.5487 51.9863 48.6027 52.2743 48.6027C52.8383 48.6027 53.2723 48.4007 53.5763 47.9967C53.8803 47.5927 54.0323 47.0167 54.0323 46.2687C54.0323 45.8727 53.9963 45.5327 53.9243 45.2487C53.8563 44.9647 53.7563 44.7327 53.6243 44.5527C53.4923 44.3687 53.3303 44.2347 53.1383 44.1507C52.9463 44.0667 52.7283 44.0247 52.4843 44.0247ZM57.5874 43.2687V49.3467H56.5194V43.2687H57.5874ZM57.8274 41.3607C57.8274 41.4647 57.8054 41.5627 57.7614 41.6547C57.7214 41.7427 57.6654 41.8227 57.5934 41.8947C57.5254 41.9627 57.4454 42.0167 57.3534 42.0567C57.2614 42.0967 57.1634 42.1167 57.0594 42.1167C56.9554 42.1167 56.8574 42.0967 56.7654 42.0567C56.6774 42.0167 56.5974 41.9627 56.5254 41.8947C56.4574 41.8227 56.4034 41.7427 56.3634 41.6547C56.3234 41.5627 56.3034 41.4647 56.3034 41.3607C56.3034 41.2567 56.3234 41.1587 56.3634 41.0667C56.4034 40.9707 56.4574 40.8887 56.5254 40.8207C56.5974 40.7487 56.6774 40.6927 56.7654 40.6527C56.8574 40.6127 56.9554 40.5927 57.0594 40.5927C57.1634 40.5927 57.2614 40.6127 57.3534 40.6527C57.4454 40.6927 57.5254 40.7487 57.5934 40.8207C57.6654 40.8887 57.7214 40.9707 57.7614 41.0667C57.8054 41.1587 57.8274 41.2567 57.8274 41.3607ZM59.4698 49.3467V43.2687H60.1058C60.2578 43.2687 60.3538 43.3427 60.3938 43.4907L60.4778 44.1507C60.7418 43.8587 61.0358 43.6227 61.3598 43.4427C61.6878 43.2627 62.0658 43.1727 62.4938 43.1727C62.8258 43.1727 63.1178 43.2287 63.3698 43.3407C63.6258 43.4487 63.8378 43.6047 64.0058 43.8087C64.1778 44.0087 64.3078 44.2507 64.3958 44.5347C64.4838 44.8187 64.5278 45.1327 64.5278 45.4767V49.3467H63.4598V45.4767C63.4598 45.0167 63.3538 44.6607 63.1418 44.4087C62.9338 44.1527 62.6138 44.0247 62.1818 44.0247C61.8658 44.0247 61.5698 44.1007 61.2938 44.2527C61.0218 44.4047 60.7698 44.6107 60.5378 44.8707V49.3467H59.4698ZM68.1837 43.1667C68.4477 43.1667 68.6937 43.1967 68.9217 43.2567C69.1537 43.3127 69.3637 43.3967 69.5517 43.5087H71.2017V43.9047C71.2017 44.0367 71.1177 44.1207 70.9497 44.1567L70.2597 44.2527C70.3957 44.5127 70.4637 44.8027 70.4637 45.1227C70.4637 45.4187 70.4057 45.6887 70.2897 45.9327C70.1777 46.1727 70.0197 46.3787 69.8157 46.5507C69.6157 46.7227 69.3757 46.8547 69.0957 46.9467C68.8197 47.0387 68.5157 47.0847 68.1837 47.0847C67.8997 47.0847 67.6317 47.0507 67.3797 46.9827C67.2517 47.0627 67.1537 47.1487 67.0857 47.2407C67.0217 47.3327 66.9897 47.4227 66.9897 47.5107C66.9897 47.6547 67.0477 47.7647 67.1637 47.8407C67.2797 47.9127 67.4337 47.9647 67.6257 47.9967C67.8177 48.0287 68.0357 48.0487 68.2797 48.0567C68.5237 48.0647 68.7717 48.0787 69.0237 48.0987C69.2797 48.1147 69.5297 48.1447 69.7737 48.1887C70.0177 48.2327 70.2357 48.3047 70.4277 48.4047C70.6197 48.5047 70.7737 48.6427 70.8897 48.8187C71.0057 48.9947 71.0637 49.2227 71.0637 49.5027C71.0637 49.7627 70.9977 50.0147 70.8657 50.2587C70.7377 50.5027 70.5517 50.7187 70.3077 50.9067C70.0637 51.0987 69.7657 51.2507 69.4137 51.3627C69.0617 51.4787 68.6637 51.5367 68.2197 51.5367C67.7757 51.5367 67.3857 51.4927 67.0497 51.4047C66.7177 51.3167 66.4417 51.1987 66.2217 51.0507C66.0017 50.9027 65.8357 50.7307 65.7237 50.5347C65.6157 50.3427 65.5617 50.1407 65.5617 49.9287C65.5617 49.6287 65.6557 49.3747 65.8437 49.1667C66.0357 48.9547 66.2977 48.7867 66.6297 48.6627C66.4577 48.5827 66.3197 48.4767 66.2157 48.3447C66.1157 48.2087 66.0657 48.0287 66.0657 47.8047C66.0657 47.7167 66.0817 47.6267 66.1137 47.5347C66.1457 47.4387 66.1937 47.3447 66.2577 47.2527C66.3257 47.1607 66.4077 47.0727 66.5037 46.9887C66.5997 46.9047 66.7117 46.8307 66.8397 46.7667C66.5397 46.5987 66.3037 46.3767 66.1317 46.1007C65.9637 45.8207 65.8797 45.4947 65.8797 45.1227C65.8797 44.8267 65.9357 44.5587 66.0477 44.3187C66.1637 44.0747 66.3237 43.8687 66.5277 43.7007C66.7317 43.5287 66.9737 43.3967 67.2537 43.3047C67.5377 43.2127 67.8477 43.1667 68.1837 43.1667ZM70.0797 49.6767C70.0797 49.5247 70.0377 49.4027 69.9537 49.3107C69.8697 49.2187 69.7557 49.1487 69.6117 49.1007C69.4677 49.0487 69.3017 49.0107 69.1137 48.9867C68.9257 48.9627 68.7277 48.9467 68.5197 48.9387C68.3117 48.9267 68.0997 48.9147 67.8837 48.9027C67.6677 48.8907 67.4617 48.8687 67.2657 48.8367C67.0377 48.9447 66.8517 49.0767 66.7077 49.2327C66.5677 49.3887 66.4977 49.5747 66.4977 49.7907C66.4977 49.9267 66.5317 50.0527 66.5997 50.1687C66.6717 50.2887 66.7797 50.3907 66.9237 50.4747C67.0677 50.5627 67.2477 50.6307 67.4637 50.6787C67.6837 50.7307 67.9417 50.7567 68.2377 50.7567C68.5257 50.7567 68.7837 50.7307 69.0117 50.6787C69.2397 50.6267 69.4317 50.5527 69.5877 50.4567C69.7477 50.3607 69.8697 50.2467 69.9537 50.1147C70.0377 49.9827 70.0797 49.8367 70.0797 49.6767ZM68.1837 46.3767C68.3997 46.3767 68.5897 46.3467 68.7537 46.2867C68.9217 46.2267 69.0617 46.1427 69.1737 46.0347C69.2857 45.9267 69.3697 45.7987 69.4257 45.6507C69.4817 45.4987 69.5097 45.3327 69.5097 45.1527C69.5097 44.7807 69.3957 44.4847 69.1677 44.2647C68.9437 44.0447 68.6157 43.9347 68.1837 43.9347C67.7557 43.9347 67.4277 44.0447 67.1997 44.2647C66.9757 44.4847 66.8637 44.7807 66.8637 45.1527C66.8637 45.3327 66.8917 45.4987 66.9477 45.6507C67.0077 45.7987 67.0937 45.9267 67.2057 46.0347C67.3177 46.1427 67.4557 46.2267 67.6197 46.2867C67.7837 46.3467 67.9717 46.3767 68.1837 46.3767Z" fill="#0C6253"/>
<path d="M22.9967 21.4715C21.3867 21.1985 19.8615 22.2906 19.5884 23.9006C19.5602 24.0701 19.5508 24.2301 19.5508 24.3902C19.5508 26.019 20.8783 27.3465 22.5071 27.3465C24.1453 27.337 25.4634 26.019 25.4634 24.3902C25.4634 24.2207 25.454 24.0606 25.4257 23.9006C25.2186 22.6578 24.2394 21.6787 22.9967 21.4715Z" fill="#0C6253"/>
<path d="M16.2924 14.7224C16.1135 14.7977 15.9911 14.986 16.0005 15.1836V22.291C16.0005 22.3098 16.0005 22.3286 16.0005 22.3475C16.0099 22.6016 16.2171 22.7899 16.4713 22.7805H17.9212C18.4107 21.359 19.5217 20.2576 20.9339 19.7681C23.4666 18.902 26.2252 20.2482 27.0913 22.7805H28.3341V13.4609H19.2581L16.2924 14.7224Z" fill="#0C6253"/>
<path d="M28.3257 7.36098C28.3257 7.36098 28.3257 7.35156 28.3257 7.34215C28.3163 7.06912 28.0904 6.86199 27.8267 6.8714H23.3358C23.1475 6.8714 22.9686 6.98438 22.8839 7.15385L20.6055 11.5789H28.3257V7.36098Z" fill="#0C6253"/>
<path d="M49.6965 21.4248C48.2466 21.4248 47.0133 22.4699 46.7779 23.9009C46.7496 24.0704 46.7402 24.2305 46.7402 24.3905C46.7402 26.0193 48.0677 27.3468 49.6965 27.3468C51.3253 27.3374 52.6528 26.0193 52.6528 24.3811C52.6622 24.2305 52.6434 24.0798 52.6246 23.9292C52.3892 22.4887 51.1559 21.4342 49.6965 21.4248Z" fill="#0C6253"/>
<path d="M30.2171 14.967H55.6375V0.1875H27.3926V4.98847H27.8351C27.8445 4.98847 27.8539 4.98847 27.8633 4.98847C29.172 4.99789 30.2265 6.05222 30.2171 7.36072V14.967Z" fill="#0C6253"/>
<path d="M56.2021 16.8496H30.2168V22.781H45.1019C45.5914 21.3594 46.7024 20.2578 48.1146 19.7682C50.6473 18.9021 53.4058 20.2484 54.272 22.781H56.1927C56.2115 22.781 56.2303 22.781 56.2492 22.781C56.5034 22.7622 56.6917 22.5457 56.6728 22.3009V17.3863C56.6728 17.1038 56.4845 16.8496 56.2021 16.8496Z" fill="#0C6253"/>
</svg>
