<svg width="56" height="53" viewBox="0 0 56 53" fill="none" xmlns="http://www.w3.org/2000/svg">
<rect opacity="0.1" y="0.862305" width="55.0778" height="51.4551" rx="25.7275" fill="#05A589"/>
<path d="M37.9746 27.1022C37.9746 26.4465 37.8927 25.9548 37.8107 25.422H28.1393V28.9054H33.8766C33.6717 30.4217 32.1554 33.2903 28.1393 33.2903C24.656 33.2903 21.8283 30.4217 21.8283 26.8563C21.8283 21.1601 28.5491 18.5373 32.1554 22.0206L34.9421 19.3569C33.1799 17.7177 30.844 16.6932 28.1393 16.6932C22.484 16.6932 17.9761 21.242 17.9761 26.8563C17.9761 32.5117 22.484 37.0195 28.1393 37.0195C33.9995 37.0195 37.9746 32.9215 37.9746 27.1022Z" fill="#0C6253"/>
</svg>
