<svg width="67" height="61" viewBox="0 0 67 61" fill="none" xmlns="http://www.w3.org/2000/svg">
<path d="M8.016 58.2354H6.846V54.3234H2.214V58.2354H1.044V49.6374H2.214V53.4714H6.846V49.6374H8.016V58.2354ZM11.1343 52.1574V58.2354H10.0663V52.1574H11.1343ZM11.3743 50.2494C11.3743 50.3534 11.3523 50.4514 11.3083 50.5434C11.2683 50.6314 11.2123 50.7114 11.1403 50.7834C11.0723 50.8514 10.9923 50.9054 10.9003 50.9454C10.8083 50.9854 10.7103 51.0054 10.6063 51.0054C10.5023 51.0054 10.4043 50.9854 10.3123 50.9454C10.2243 50.9054 10.1443 50.8514 10.0723 50.7834C10.0043 50.7114 9.95031 50.6314 9.91031 50.5434C9.87031 50.4514 9.85031 50.3534 9.85031 50.2494C9.85031 50.1454 9.87031 50.0474 9.91031 49.9554C9.95031 49.8594 10.0043 49.7774 10.0723 49.7094C10.1443 49.6374 10.2243 49.5814 10.3123 49.5414C10.4043 49.5014 10.5023 49.4814 10.6063 49.4814C10.7103 49.4814 10.8083 49.5014 10.9003 49.5414C10.9923 49.5814 11.0723 49.6374 11.1403 49.7094C11.2123 49.7774 11.2683 49.8594 11.3083 49.9554C11.3523 50.0474 11.3743 50.1454 11.3743 50.2494ZM15.0626 52.0554C15.3266 52.0554 15.5726 52.0854 15.8006 52.1454C16.0326 52.2014 16.2426 52.2854 16.4306 52.3974H18.0806V52.7934C18.0806 52.9254 17.9966 53.0094 17.8286 53.0454L17.1386 53.1414C17.2746 53.4014 17.3426 53.6914 17.3426 54.0114C17.3426 54.3074 17.2846 54.5774 17.1686 54.8214C17.0566 55.0614 16.8986 55.2674 16.6946 55.4394C16.4946 55.6114 16.2546 55.7434 15.9746 55.8354C15.6986 55.9274 15.3946 55.9734 15.0626 55.9734C14.7786 55.9734 14.5106 55.9394 14.2586 55.8714C14.1306 55.9514 14.0326 56.0374 13.9646 56.1294C13.9006 56.2214 13.8686 56.3114 13.8686 56.3994C13.8686 56.5434 13.9266 56.6534 14.0426 56.7294C14.1586 56.8014 14.3126 56.8534 14.5046 56.8854C14.6966 56.9174 14.9146 56.9374 15.1586 56.9454C15.4026 56.9534 15.6506 56.9674 15.9026 56.9874C16.1586 57.0034 16.4086 57.0334 16.6526 57.0774C16.8966 57.1214 17.1146 57.1934 17.3066 57.2934C17.4986 57.3934 17.6526 57.5314 17.7686 57.7074C17.8846 57.8834 17.9426 58.1114 17.9426 58.3914C17.9426 58.6514 17.8766 58.9034 17.7446 59.1474C17.6166 59.3914 17.4306 59.6074 17.1866 59.7954C16.9426 59.9874 16.6446 60.1394 16.2926 60.2514C15.9406 60.3674 15.5426 60.4254 15.0986 60.4254C14.6546 60.4254 14.2646 60.3814 13.9286 60.2934C13.5966 60.2054 13.3206 60.0874 13.1006 59.9394C12.8806 59.7914 12.7146 59.6194 12.6026 59.4234C12.4946 59.2314 12.4406 59.0294 12.4406 58.8174C12.4406 58.5174 12.5346 58.2634 12.7226 58.0554C12.9146 57.8434 13.1766 57.6754 13.5086 57.5514C13.3366 57.4714 13.1986 57.3654 13.0946 57.2334C12.9946 57.0974 12.9446 56.9174 12.9446 56.6934C12.9446 56.6054 12.9606 56.5154 12.9926 56.4234C13.0246 56.3274 13.0726 56.2334 13.1366 56.1414C13.2046 56.0494 13.2866 55.9614 13.3826 55.8774C13.4786 55.7934 13.5906 55.7194 13.7186 55.6554C13.4186 55.4874 13.1826 55.2654 13.0106 54.9894C12.8426 54.7094 12.7586 54.3834 12.7586 54.0114C12.7586 53.7154 12.8146 53.4474 12.9266 53.2074C13.0426 52.9634 13.2026 52.7574 13.4066 52.5894C13.6106 52.4174 13.8526 52.2854 14.1326 52.1934C14.4166 52.1014 14.7266 52.0554 15.0626 52.0554ZM16.9586 58.5654C16.9586 58.4134 16.9166 58.2914 16.8326 58.1994C16.7486 58.1074 16.6346 58.0374 16.4906 57.9894C16.3466 57.9374 16.1806 57.8994 15.9926 57.8754C15.8046 57.8514 15.6066 57.8354 15.3986 57.8274C15.1906 57.8154 14.9786 57.8034 14.7626 57.7914C14.5466 57.7794 14.3406 57.7574 14.1446 57.7254C13.9166 57.8334 13.7306 57.9654 13.5866 58.1214C13.4466 58.2774 13.3766 58.4634 13.3766 58.6794C13.3766 58.8154 13.4106 58.9414 13.4786 59.0574C13.5506 59.1774 13.6586 59.2794 13.8026 59.3634C13.9466 59.4514 14.1266 59.5194 14.3426 59.5674C14.5626 59.6194 14.8206 59.6454 15.1166 59.6454C15.4046 59.6454 15.6626 59.6194 15.8906 59.5674C16.1186 59.5154 16.3106 59.4414 16.4666 59.3454C16.6266 59.2494 16.7486 59.1354 16.8326 59.0034C16.9166 58.8714 16.9586 58.7254 16.9586 58.5654ZM15.0626 55.2654C15.2786 55.2654 15.4686 55.2354 15.6326 55.1754C15.8006 55.1154 15.9406 55.0314 16.0526 54.9234C16.1646 54.8154 16.2486 54.6874 16.3046 54.5394C16.3606 54.3874 16.3886 54.2214 16.3886 54.0414C16.3886 53.6694 16.2746 53.3734 16.0466 53.1534C15.8226 52.9334 15.4946 52.8234 15.0626 52.8234C14.6346 52.8234 14.3066 52.9334 14.0786 53.1534C13.8546 53.3734 13.7426 53.6694 13.7426 54.0414C13.7426 54.2214 13.7706 54.3874 13.8266 54.5394C13.8866 54.6874 13.9726 54.8154 14.0846 54.9234C14.1966 55.0314 14.3346 55.1154 14.4986 55.1754C14.6626 55.2354 14.8506 55.2654 15.0626 55.2654ZM19.1455 58.2354V49.3974H20.2135V52.9734C20.4735 52.6974 20.7615 52.4774 21.0775 52.3134C21.3935 52.1454 21.7575 52.0614 22.1695 52.0614C22.5015 52.0614 22.7935 52.1174 23.0455 52.2294C23.3015 52.3374 23.5135 52.4934 23.6815 52.6974C23.8535 52.8974 23.9835 53.1394 24.0715 53.4234C24.1595 53.7074 24.2035 54.0214 24.2035 54.3654V58.2354H23.1355V54.3654C23.1355 53.9054 23.0295 53.5494 22.8175 53.2974C22.6095 53.0414 22.2895 52.9134 21.8575 52.9134C21.5415 52.9134 21.2455 52.9894 20.9695 53.1414C20.6975 53.2934 20.4455 53.4994 20.2135 53.7594V58.2354H19.1455ZM36.2878 53.9394C36.2878 54.3434 36.2458 54.7274 36.1618 55.0914C36.0818 55.4554 35.9638 55.7954 35.8078 56.1114C35.6518 56.4234 35.4618 56.7074 35.2378 56.9634C35.0138 57.2194 34.7618 57.4414 34.4818 57.6294L36.6898 60.0114H35.7298C35.5858 60.0114 35.4578 59.9914 35.3458 59.9514C35.2338 59.9114 35.1318 59.8414 35.0398 59.7414L33.5278 58.0974C33.2998 58.1694 33.0618 58.2254 32.8138 58.2654C32.5698 58.3054 32.3138 58.3254 32.0458 58.3254C31.4138 58.3254 30.8378 58.2194 30.3178 58.0074C29.7978 57.7914 29.3518 57.4894 28.9798 57.1014C28.6078 56.7134 28.3198 56.2514 28.1158 55.7154C27.9118 55.1754 27.8098 54.5834 27.8098 53.9394C27.8098 53.2954 27.9118 52.7054 28.1158 52.1694C28.3198 51.6294 28.6078 51.1654 28.9798 50.7774C29.3518 50.3854 29.7978 50.0814 30.3178 49.8654C30.8378 49.6494 31.4138 49.5414 32.0458 49.5414C32.6778 49.5414 33.2538 49.6494 33.7738 49.8654C34.2978 50.0814 34.7458 50.3854 35.1178 50.7774C35.4898 51.1654 35.7778 51.6294 35.9818 52.1694C36.1858 52.7054 36.2878 53.2954 36.2878 53.9394ZM35.0938 53.9394C35.0938 53.4114 35.0218 52.9374 34.8778 52.5174C34.7338 52.0974 34.5298 51.7434 34.2658 51.4554C34.0018 51.1634 33.6818 50.9394 33.3058 50.7834C32.9298 50.6274 32.5098 50.5494 32.0458 50.5494C31.5858 50.5494 31.1678 50.6274 30.7918 50.7834C30.4158 50.9394 30.0938 51.1634 29.8258 51.4554C29.5618 51.7434 29.3578 52.0974 29.2138 52.5174C29.0698 52.9374 28.9978 53.4114 28.9978 53.9394C28.9978 54.4674 29.0698 54.9414 29.2138 55.3614C29.3578 55.7774 29.5618 56.1314 29.8258 56.4234C30.0938 56.7114 30.4158 56.9334 30.7918 57.0894C31.1678 57.2414 31.5858 57.3174 32.0458 57.3174C32.5098 57.3174 32.9298 57.2414 33.3058 57.0894C33.6818 56.9334 34.0018 56.7114 34.2658 56.4234C34.5298 56.1314 34.7338 55.7774 34.8778 55.3614C35.0218 54.9414 35.0938 54.4674 35.0938 53.9394ZM38.632 52.1574V56.0334C38.632 56.4934 38.738 56.8494 38.95 57.1014C39.162 57.3534 39.482 57.4794 39.91 57.4794C40.222 57.4794 40.516 57.4054 40.792 57.2574C41.068 57.1094 41.322 56.9034 41.554 56.6394V52.1574H42.622V58.2354H41.986C41.834 58.2354 41.738 58.1614 41.698 58.0134L41.614 57.3594C41.35 57.6514 41.054 57.8874 40.726 58.0674C40.398 58.2434 40.022 58.3314 39.598 58.3314C39.266 58.3314 38.972 58.2774 38.716 58.1694C38.464 58.0574 38.252 57.9014 38.08 57.7014C37.908 57.5014 37.778 57.2594 37.69 56.9754C37.606 56.6914 37.564 56.3774 37.564 56.0334V52.1574H38.632ZM48.84 58.2354H48.366C48.262 58.2354 48.178 58.2194 48.114 58.1874C48.05 58.1554 48.008 58.0874 47.988 57.9834L47.868 57.4194C47.708 57.5634 47.552 57.6934 47.4 57.8094C47.248 57.9214 47.088 58.0174 46.92 58.0974C46.752 58.1734 46.572 58.2314 46.38 58.2714C46.192 58.3114 45.982 58.3314 45.75 58.3314C45.514 58.3314 45.292 58.2994 45.084 58.2354C44.88 58.1674 44.702 58.0674 44.55 57.9354C44.398 57.8034 44.276 57.6374 44.184 57.4374C44.096 57.2334 44.052 56.9934 44.052 56.7174C44.052 56.4774 44.118 56.2474 44.25 56.0274C44.382 55.8034 44.594 55.6054 44.886 55.4334C45.182 55.2614 45.568 55.1214 46.044 55.0134C46.52 54.9014 47.102 54.8374 47.79 54.8214V54.3474C47.79 53.8754 47.688 53.5194 47.484 53.2794C47.284 53.0354 46.986 52.9134 46.59 52.9134C46.33 52.9134 46.11 52.9474 45.93 53.0154C45.754 53.0794 45.6 53.1534 45.468 53.2374C45.34 53.3174 45.228 53.3914 45.132 53.4594C45.04 53.5234 44.948 53.5554 44.856 53.5554C44.784 53.5554 44.72 53.5374 44.664 53.5014C44.612 53.4614 44.57 53.4134 44.538 53.3574L44.346 53.0154C44.682 52.6914 45.044 52.4494 45.432 52.2894C45.82 52.1294 46.25 52.0494 46.722 52.0494C47.062 52.0494 47.364 52.1054 47.628 52.2174C47.892 52.3294 48.114 52.4854 48.294 52.6854C48.474 52.8854 48.61 53.1274 48.702 53.4114C48.794 53.6954 48.84 54.0074 48.84 54.3474V58.2354ZM46.068 57.5814C46.256 57.5814 46.428 57.5634 46.584 57.5274C46.74 57.4874 46.886 57.4334 47.022 57.3654C47.162 57.2934 47.294 57.2074 47.418 57.1074C47.546 57.0074 47.67 56.8934 47.79 56.7654V55.4994C47.298 55.5154 46.88 55.5554 46.536 55.6194C46.192 55.6794 45.912 55.7594 45.696 55.8594C45.48 55.9594 45.322 56.0774 45.222 56.2134C45.126 56.3494 45.078 56.5014 45.078 56.6694C45.078 56.8294 45.104 56.9674 45.156 57.0834C45.208 57.1994 45.278 57.2954 45.366 57.3714C45.454 57.4434 45.558 57.4974 45.678 57.5334C45.798 57.5654 45.928 57.5814 46.068 57.5814ZM51.646 49.3974V58.2354H50.578V49.3974H51.646ZM54.7163 52.1574V58.2354H53.6483V52.1574H54.7163ZM54.9563 50.2494C54.9563 50.3534 54.9343 50.4514 54.8903 50.5434C54.8503 50.6314 54.7943 50.7114 54.7223 50.7834C54.6543 50.8514 54.5743 50.9054 54.4823 50.9454C54.3903 50.9854 54.2923 51.0054 54.1883 51.0054C54.0843 51.0054 53.9863 50.9854 53.8943 50.9454C53.8063 50.9054 53.7263 50.8514 53.6543 50.7834C53.5863 50.7114 53.5323 50.6314 53.4923 50.5434C53.4523 50.4514 53.4323 50.3534 53.4323 50.2494C53.4323 50.1454 53.4523 50.0474 53.4923 49.9554C53.5323 49.8594 53.5863 49.7774 53.6543 49.7094C53.7263 49.6374 53.8063 49.5814 53.8943 49.5414C53.9863 49.5014 54.0843 49.4814 54.1883 49.4814C54.2923 49.4814 54.3903 49.5014 54.4823 49.5414C54.5743 49.5814 54.6543 49.6374 54.7223 49.7094C54.7943 49.7774 54.8503 49.8594 54.8903 49.9554C54.9343 50.0474 54.9563 50.1454 54.9563 50.2494ZM58.4407 58.3314C57.9607 58.3314 57.5907 58.1974 57.3307 57.9294C57.0747 57.6614 56.9467 57.2754 56.9467 56.7714V53.0514H56.2147C56.1507 53.0514 56.0967 53.0334 56.0527 52.9974C56.0087 52.9574 55.9867 52.8974 55.9867 52.8174V52.3914L56.9827 52.2654L57.2287 50.3874C57.2367 50.3274 57.2627 50.2794 57.3067 50.2434C57.3507 50.2034 57.4067 50.1834 57.4747 50.1834H58.0147V52.2774H59.7547V53.0514H58.0147V56.6994C58.0147 56.9554 58.0767 57.1454 58.2007 57.2694C58.3247 57.3934 58.4847 57.4554 58.6807 57.4554C58.7927 57.4554 58.8887 57.4414 58.9687 57.4134C59.0527 57.3814 59.1247 57.3474 59.1847 57.3114C59.2447 57.2754 59.2947 57.2434 59.3347 57.2154C59.3787 57.1834 59.4167 57.1674 59.4487 57.1674C59.5047 57.1674 59.5547 57.2014 59.5987 57.2694L59.9107 57.7794C59.7267 57.9514 59.5047 58.0874 59.2447 58.1874C58.9847 58.2834 58.7167 58.3314 58.4407 58.3314ZM62.8572 60.0294C62.8212 60.1094 62.7752 60.1734 62.7192 60.2214C62.6672 60.2694 62.5852 60.2934 62.4732 60.2934H61.6812L62.7912 57.8814L60.2832 52.1574H61.2072C61.2992 52.1574 61.3712 52.1814 61.4232 52.2294C61.4752 52.2734 61.5132 52.3234 61.5372 52.3794L63.1632 56.2074C63.1992 56.2954 63.2292 56.3834 63.2532 56.4714C63.2812 56.5594 63.3052 56.6494 63.3252 56.7414C63.3532 56.6494 63.3812 56.5594 63.4092 56.4714C63.4372 56.3834 63.4692 56.2934 63.5052 56.2014L65.0832 52.3794C65.1072 52.3154 65.1472 52.2634 65.2032 52.2234C65.2632 52.1794 65.3272 52.1574 65.3952 52.1574H66.2472L62.8572 60.0294Z" fill="#0C6253"/>
<path d="M33.3498 11.3438C29.5619 11.3438 26.4805 14.4248 26.4805 18.2118C26.4805 21.9991 29.5619 25.0802 33.3498 25.0802C37.1373 25.0802 40.2188 21.9991 40.2188 18.2118C40.2188 14.4248 37.1373 11.3438 33.3498 11.3438ZM37.428 16.9184L32.507 21.8388C32.3004 22.0453 32.0295 22.1487 31.7588 22.1487C31.4882 22.1487 31.2175 22.0456 31.0109 21.8388L29.1304 19.9585C28.7172 19.5457 28.7172 18.876 29.1304 18.4629C29.5432 18.0498 30.213 18.0498 30.6261 18.4629L31.7588 19.5954L35.9323 15.4228C36.3451 15.0098 37.0149 15.0098 37.428 15.4228C37.8412 15.8356 37.8412 16.5053 37.428 16.9184Z" fill="#0C6253"/>
<path d="M48.6647 9.96808L48.6636 9.94002C48.6479 9.59377 48.6374 9.22745 48.6311 8.81987C48.6017 6.83231 47.0215 5.18824 45.0334 5.07713C40.8883 4.84584 37.6817 3.4944 34.9418 0.824238L34.9184 0.801962C34.0248 -0.0173205 32.6767 -0.0173205 31.7828 0.801962L31.7594 0.824238C29.0196 3.4944 25.813 4.84584 21.6679 5.07741C19.68 5.18824 18.0996 6.83231 18.0701 8.82015C18.0641 9.22497 18.0533 9.5913 18.0377 9.94002L18.036 10.0052C17.9554 14.2314 17.8553 19.4912 19.6151 24.2652C20.5828 26.8906 22.0483 29.1727 23.9706 31.0486C26.1601 33.1849 29.0278 34.881 32.4941 36.0894C32.6069 36.1287 32.724 36.1606 32.8434 36.1846C33.0118 36.2181 33.1812 36.2349 33.3506 36.2349C33.5201 36.2349 33.6898 36.2181 33.8578 36.1846C33.9772 36.1606 34.0952 36.1284 34.2085 36.0888C37.6707 34.8782 40.5354 33.1813 42.7229 31.0453C44.6444 29.1688 46.1099 26.8862 47.0784 24.2603C48.8448 19.4719 48.745 14.2023 48.6647 9.96808ZM33.3501 27.1953C28.3958 27.1953 24.3653 23.1654 24.3653 18.2118C24.3653 13.2581 28.3958 9.22827 33.3501 9.22827C38.3041 9.22827 42.3348 13.2581 42.3348 18.2118C42.3348 23.1654 38.3041 27.1953 33.3501 27.1953Z" fill="#0C6253"/>
</svg>
