<svg width="53" height="54" viewBox="0 0 53 54" fill="none" xmlns="http://www.w3.org/2000/svg">
<g clip-path="url(#clip0_701_1885)">
<rect opacity="0.1" x="0.203125" y="0.892578" width="52.4551" height="52.4551" rx="26.2275" fill="#05A589"/>
<path d="M26.8671 23.1748C24.2444 23.1748 22.1544 25.3058 22.1544 27.8876C22.1544 30.5104 24.2444 32.6004 26.8671 32.6004C29.4489 32.6004 31.5799 30.5104 31.5799 27.8876C31.5799 25.3058 29.4489 23.1748 26.8671 23.1748ZM26.8671 30.9611C25.1869 30.9611 23.7936 29.6088 23.7936 27.8876C23.7936 26.2074 25.146 24.855 26.8671 24.855C28.5473 24.855 29.8997 26.2074 29.8997 27.8876C29.8997 29.6088 28.5473 30.9611 26.8671 30.9611ZM32.8503 23.0109C32.8503 22.3962 32.3585 21.9044 31.7438 21.9044C31.1291 21.9044 30.6374 22.3962 30.6374 23.0109C30.6374 23.6256 31.1291 24.1174 31.7438 24.1174C32.3585 24.1174 32.8503 23.6256 32.8503 23.0109ZM35.9648 24.1174C35.8829 22.6421 35.555 21.3307 34.4895 20.2652C33.424 19.1997 32.1126 18.8719 30.6374 18.7899C29.1211 18.708 24.5722 18.708 23.056 18.7899C21.5807 18.8719 20.3103 19.1997 19.2038 20.2652C18.1383 21.3307 17.8104 22.6421 17.7285 24.1174C17.6465 25.6337 17.6465 30.1825 17.7285 31.6988C17.8104 33.1741 18.1383 34.4445 19.2038 35.551C20.3103 36.6165 21.5807 36.9443 23.056 37.0263C24.5722 37.1082 29.1211 37.1082 30.6374 37.0263C32.1126 36.9443 33.424 36.6165 34.4895 35.551C35.555 34.4445 35.8829 33.1741 35.9648 31.6988C36.0468 30.1825 36.0468 25.6337 35.9648 24.1174ZM33.9978 33.297C33.7109 34.1166 33.0552 34.7313 32.2766 35.0592C31.0472 35.551 28.1785 35.428 26.8671 35.428C25.5148 35.428 22.6461 35.551 21.4577 35.0592C20.6381 34.7313 20.0234 34.1166 19.6955 33.297C19.2038 32.1086 19.3267 29.24 19.3267 27.8876C19.3267 26.5762 19.2038 23.7076 19.6955 22.4782C20.0234 21.6995 20.6381 21.0848 21.4577 20.757C22.6461 20.2652 25.5148 20.3882 26.8671 20.3882C28.1785 20.3882 31.0472 20.2652 32.2766 20.757C33.0552 21.0438 33.6699 21.6995 33.9978 22.4782C34.4895 23.7076 34.3666 26.5762 34.3666 27.8876C34.3666 29.24 34.4895 32.1086 33.9978 33.297Z" fill="#0C6253"/>
</g>
<defs>
<clipPath id="clip0_701_1885">
<rect width="52.4551" height="52.4479" fill="white" transform="translate(0.203125 0.892578)"/>
</clipPath>
</defs>
</svg>
