<svg width="57" height="54" viewBox="0 0 57 54" fill="none" xmlns="http://www.w3.org/2000/svg">
<g clip-path="url(#clip0_701_1880)">
<rect opacity="0.1" x="0.945312" y="0.892578" width="55.0778" height="52.4551" rx="26.2275" fill="#05A589"/>
<path d="M37.2398 23.6246C38.0594 23.0099 38.797 22.2723 39.3707 21.4117C38.6331 21.7395 37.7725 21.9854 36.9119 22.0674C37.8135 21.5346 38.4692 20.715 38.797 19.6905C37.9774 20.1823 37.0349 20.5511 36.0923 20.756C35.2727 19.8954 34.1662 19.4036 32.9368 19.4036C30.5599 19.4036 28.6338 21.3297 28.6338 23.7066C28.6338 24.0344 28.6748 24.3623 28.7568 24.6901C25.1915 24.4852 21.995 22.7641 19.864 20.1823C19.4952 20.797 19.2903 21.5346 19.2903 22.3542C19.2903 23.8295 20.0279 25.1409 21.2164 25.9196C20.5197 25.8786 19.823 25.7147 19.2493 25.3868V25.4278C19.2493 27.5178 20.7246 29.239 22.6917 29.6488C22.3638 29.7307 21.954 29.8127 21.5852 29.8127C21.2983 29.8127 21.0524 29.7717 20.7656 29.7307C21.2983 31.4519 22.8966 32.6813 24.7817 32.7223C23.3064 33.8698 21.4622 34.5664 19.4542 34.5664C19.0854 34.5664 18.7575 34.5255 18.4297 34.4845C20.3148 35.7139 22.5687 36.4106 25.0276 36.4106C32.9368 36.4106 37.2398 29.8947 37.2398 24.1984C37.2398 23.9935 37.2398 23.8295 37.2398 23.6246Z" fill="#0C6253"/>
</g>
<defs>
<clipPath id="clip0_701_1880">
<rect width="55.0778" height="52.4479" fill="white" transform="translate(0.945312 0.892578)"/>
</clipPath>
</defs>
</svg>
