<svg width="145" height="34" viewBox="0 0 145 34" fill="none" xmlns="http://www.w3.org/2000/svg">
<path fill-rule="evenodd" clip-rule="evenodd" d="M24 16.7305C24 20.8726 20.6421 24.2305 16.5 24.2305C12.3579 24.2305 9 20.8726 9 16.7305C9 12.5883 12.3579 9.23047 16.5 9.23047C20.6421 9.23047 24 12.5883 24 16.7305ZM33 16.7305C33 25.8432 25.6127 33.2305 16.5 33.2305C7.3873 33.2305 0 25.8432 0 16.7305C0 7.61777 7.3873 0.230469 16.5 0.230469C25.6127 0.230469 33 7.61777 33 16.7305ZM56.9886 9.54545H53.2983V20.5653C53.2983 21.2301 53.1506 21.821 52.8551 22.3381C52.5653 22.8551 52.1534 23.2614 51.6193 23.5568C51.0909 23.8523 50.4688 24 49.7528 24C49.0426 24 48.4205 23.8523 47.8864 23.5568C47.3523 23.2614 46.9375 22.8551 46.642 22.3381C46.3523 21.821 46.2074 21.2301 46.2074 20.5653V9.54545H42.517V20.8807C42.517 22.1534 42.8182 23.267 43.4205 24.2216C44.0227 25.1761 44.8665 25.9205 45.9517 26.4545C47.0369 26.983 48.304 27.2472 49.7528 27.2472C51.196 27.2472 52.4602 26.983 53.5455 26.4545C54.6307 25.9205 55.4744 25.1761 56.0767 24.2216C56.6847 23.267 56.9886 22.1534 56.9886 20.8807V9.54545ZM60.0249 9.54545V27H63.7152V21.3409H66.8175C68.1584 21.3409 69.3004 21.0938 70.2436 20.5994C71.1925 20.1051 71.9169 19.4148 72.4169 18.5284C72.9169 17.642 73.1669 16.6193 73.1669 15.4602C73.1669 14.3011 72.9197 13.2784 72.4254 12.392C71.9368 11.5 71.2266 10.804 70.2947 10.304C69.3629 9.7983 68.2351 9.54545 66.9112 9.54545H60.0249ZM63.7152 18.3835H66.2209C66.9311 18.3835 67.5163 18.2614 67.9766 18.017C68.4425 17.767 68.7891 17.4233 69.0163 16.9858C69.2493 16.5426 69.3658 16.0341 69.3658 15.4602C69.3658 14.8807 69.2493 14.375 69.0163 13.9432C68.7891 13.5057 68.4425 13.1676 67.9766 12.929C67.5107 12.6847 66.9197 12.5625 66.2038 12.5625H63.7152V18.3835ZM75.4957 13.9091V27H79.1264V19.5938C79.1264 19.0597 79.2457 18.5881 79.4844 18.179C79.7287 17.7699 80.0582 17.4517 80.473 17.2244C80.8935 16.9915 81.3707 16.875 81.9048 16.875C82.1548 16.875 82.4304 16.8949 82.7315 16.9347C83.0327 16.9744 83.2685 17.0199 83.4389 17.071V13.8494C83.2798 13.8097 83.0952 13.7784 82.8849 13.7557C82.6747 13.733 82.4787 13.7216 82.2969 13.7216C81.5639 13.7216 80.9162 13.9318 80.3537 14.3523C79.7912 14.767 79.3906 15.3807 79.152 16.1932H79.0156V13.9091H75.4957ZM87.1868 26.4119C88.1527 26.9744 89.2976 27.2557 90.6215 27.2557C91.9453 27.2557 93.0874 26.9744 94.0476 26.4119C95.0135 25.8438 95.7578 25.054 96.2805 24.0426C96.8033 23.0256 97.0646 21.8466 97.0646 20.5057C97.0646 19.1534 96.8033 17.9716 96.2805 16.9602C95.7578 15.9432 95.0135 15.1534 94.0476 14.5909C93.0874 14.0227 91.9453 13.7386 90.6215 13.7386C89.2976 13.7386 88.1527 14.0227 87.1868 14.5909C86.2266 15.1534 85.4851 15.9432 84.9624 16.9602C84.4396 17.9716 84.1783 19.1534 84.1783 20.5057C84.1783 21.8466 84.4396 23.0256 84.9624 24.0426C85.4851 25.054 86.2266 25.8438 87.1868 26.4119ZM92.147 23.9318C91.7436 24.2727 91.2408 24.4432 90.6385 24.4432C90.0305 24.4432 89.5192 24.2727 89.1044 23.9318C88.6953 23.5852 88.3857 23.1136 88.1754 22.517C87.9709 21.9205 87.8686 21.2415 87.8686 20.4801C87.8686 19.7188 87.9709 19.0398 88.1754 18.4432C88.3857 17.8466 88.6953 17.375 89.1044 17.0284C89.5192 16.6818 90.0305 16.5085 90.6385 16.5085C91.2408 16.5085 91.7436 16.6818 92.147 17.0284C92.5504 17.375 92.8544 17.8466 93.059 18.4432C93.2692 19.0398 93.3743 19.7188 93.3743 20.4801C93.3743 21.2415 93.2692 21.9205 93.059 22.517C92.8544 23.1136 92.5504 23.5852 92.147 23.9318ZM106.388 16.6364V13.9091H103.925V10.7727H100.295V13.9091H98.505V16.6364H100.295V23.4545C100.289 24.3125 100.468 25.0227 100.832 25.5852C101.195 26.1477 101.704 26.5625 102.357 26.8295C103.016 27.0966 103.783 27.2131 104.658 27.179C105.13 27.1619 105.531 27.1136 105.86 27.0341C106.19 26.9602 106.445 26.8949 106.627 26.8381L106.056 24.1364C105.965 24.1534 105.835 24.179 105.664 24.2131C105.494 24.2415 105.323 24.2557 105.153 24.2557C104.908 24.2557 104.692 24.2188 104.505 24.1449C104.323 24.071 104.181 23.9432 104.079 23.7614C103.977 23.5739 103.925 23.3125 103.925 22.9773V16.6364H106.388ZM111.102 26.4375C112.073 26.983 113.232 27.2557 114.579 27.2557C115.658 27.2557 116.61 27.0909 117.434 26.7614C118.263 26.4261 118.94 25.9602 119.462 25.3636C119.991 24.7614 120.34 24.0568 120.511 23.25L117.153 23.0284C117.028 23.358 116.846 23.6364 116.607 23.8636C116.369 24.0909 116.082 24.2614 115.746 24.375C115.411 24.4886 115.042 24.5455 114.638 24.5455C114.031 24.5455 113.505 24.4176 113.062 24.1619C112.619 23.9062 112.275 23.5426 112.031 23.071C111.792 22.5994 111.673 22.0398 111.673 21.392V21.3835H120.587V20.3864C120.587 19.2727 120.431 18.3011 120.119 17.4716C119.806 16.6364 119.369 15.9432 118.806 15.392C118.249 14.8409 117.596 14.429 116.846 14.1562C116.102 13.8778 115.298 13.7386 114.434 13.7386C113.15 13.7386 112.031 14.0227 111.076 14.5909C110.127 15.1591 109.391 15.9517 108.869 16.9688C108.346 17.9858 108.085 19.1676 108.085 20.5142C108.085 21.8949 108.346 23.0909 108.869 24.1023C109.391 25.108 110.136 25.8864 111.102 26.4375ZM111.676 19.1335C111.698 18.6634 111.819 18.2345 112.039 17.8466C112.278 17.4205 112.607 17.0824 113.028 16.8324C113.454 16.5767 113.942 16.4489 114.494 16.4489C115.022 16.4489 115.485 16.5653 115.883 16.7983C116.286 17.0256 116.602 17.3409 116.829 17.7443C117.056 18.1477 117.17 18.6108 117.17 19.1335H111.676ZM125.411 26.4034C126.377 26.9716 127.531 27.2557 128.871 27.2557C130.036 27.2557 131.045 27.0426 131.897 26.6165C132.749 26.1903 133.417 25.5994 133.9 24.8438C134.388 24.0824 134.661 23.2017 134.718 22.2017H131.292C131.224 22.6619 131.079 23.0568 130.857 23.3864C130.641 23.7102 130.366 23.9574 130.031 24.1278C129.701 24.2983 129.329 24.3835 128.914 24.3835C128.352 24.3835 127.86 24.2301 127.44 23.9233C127.019 23.6165 126.692 23.1705 126.46 22.5852C126.232 22 126.119 21.2898 126.119 20.4545C126.119 19.6307 126.235 18.929 126.468 18.3494C126.701 17.7699 127.025 17.3295 127.44 17.0284C127.86 16.7216 128.352 16.5682 128.914 16.5682C129.579 16.5682 130.116 16.7699 130.525 17.1733C130.94 17.571 131.195 18.0966 131.292 18.75H134.718C134.667 17.7386 134.391 16.858 133.891 16.108C133.391 15.358 132.712 14.7756 131.854 14.3608C130.996 13.946 129.996 13.7386 128.854 13.7386C127.531 13.7386 126.388 14.0256 125.428 14.5994C124.468 15.1676 123.727 15.9602 123.204 16.9773C122.687 17.9886 122.428 19.1648 122.428 20.5057C122.428 21.8295 122.684 23 123.195 24.017C123.712 25.0341 124.451 25.8295 125.411 26.4034ZM144.006 16.6364V13.9091H141.543V10.7727H137.912V13.9091H136.122V16.6364H137.912V23.4545C137.906 24.3125 138.085 25.0227 138.449 25.5852C138.812 26.1477 139.321 26.5625 139.974 26.8295C140.634 27.0966 141.401 27.2131 142.276 27.179C142.747 27.1619 143.148 27.1136 143.477 27.0341C143.807 26.9602 144.062 26.8949 144.244 26.8381L143.673 24.1364C143.582 24.1534 143.452 24.179 143.281 24.2131C143.111 24.2415 142.94 24.2557 142.77 24.2557C142.526 24.2557 142.31 24.2188 142.122 24.1449C141.94 24.071 141.798 23.9432 141.696 23.7614C141.594 23.5739 141.543 23.3125 141.543 22.9773V16.6364H144.006Z" fill="#05A589"/>
</svg>
