<svg width="145" height="33" viewBox="0 0 145 33" fill="none" xmlns="http://www.w3.org/2000/svg">
<path fill-rule="evenodd" clip-rule="evenodd" d="M24 16.5C24 20.6421 20.6421 24 16.5 24C12.3579 24 9 20.6421 9 16.5C9 12.3579 12.3579 9 16.5 9C20.6421 9 24 12.3579 24 16.5ZM33 16.5C33 25.6127 25.6127 33 16.5 33C7.3873 33 0 25.6127 0 16.5C0 7.3873 7.3873 0 16.5 0C25.6127 0 33 7.3873 33 16.5ZM56.9886 7.54545H53.2983V18.5653C53.2983 19.2301 53.1506 19.821 52.8551 20.3381C52.5653 20.8551 52.1534 21.2614 51.6193 21.5568C51.0909 21.8523 50.4688 22 49.7528 22C49.0426 22 48.4205 21.8523 47.8864 21.5568C47.3523 21.2614 46.9375 20.8551 46.642 20.3381C46.3523 19.821 46.2074 19.2301 46.2074 18.5653V7.54545H42.517V18.8807C42.517 20.1534 42.8182 21.267 43.4205 22.2216C44.0227 23.1761 44.8665 23.9205 45.9517 24.4545C47.0369 24.983 48.304 25.2472 49.7528 25.2472C51.196 25.2472 52.4602 24.983 53.5455 24.4545C54.6307 23.9205 55.4744 23.1761 56.0767 22.2216C56.6847 21.267 56.9886 20.1534 56.9886 18.8807V7.54545ZM60.0249 7.54545V25H63.7152V19.3409H66.8175C68.1584 19.3409 69.3004 19.0938 70.2436 18.5994C71.1925 18.1051 71.9169 17.4148 72.4169 16.5284C72.9169 15.642 73.1669 14.6193 73.1669 13.4602C73.1669 12.3011 72.9197 11.2784 72.4254 10.392C71.9368 9.5 71.2266 8.80398 70.2947 8.30398C69.3629 7.7983 68.2351 7.54545 66.9112 7.54545H60.0249ZM63.7152 16.3835H66.2209C66.9311 16.3835 67.5163 16.2614 67.9766 16.017C68.4425 15.767 68.7891 15.4233 69.0163 14.9858C69.2493 14.5426 69.3658 14.0341 69.3658 13.4602C69.3658 12.8807 69.2493 12.375 69.0163 11.9432C68.7891 11.5057 68.4425 11.1676 67.9766 10.929C67.5107 10.6847 66.9197 10.5625 66.2038 10.5625H63.7152V16.3835ZM75.4957 11.9091V25H79.1264V17.5938C79.1264 17.0597 79.2457 16.5881 79.4844 16.179C79.7287 15.7699 80.0582 15.4517 80.473 15.2244C80.8935 14.9915 81.3707 14.875 81.9048 14.875C82.1548 14.875 82.4304 14.8949 82.7315 14.9347C83.0327 14.9744 83.2685 15.0199 83.4389 15.071V11.8494C83.2798 11.8097 83.0952 11.7784 82.8849 11.7557C82.6747 11.733 82.4787 11.7216 82.2969 11.7216C81.5639 11.7216 80.9162 11.9318 80.3537 12.3523C79.7912 12.767 79.3906 13.3807 79.152 14.1932H79.0156V11.9091H75.4957ZM87.1868 24.4119C88.1527 24.9744 89.2976 25.2557 90.6215 25.2557C91.9453 25.2557 93.0874 24.9744 94.0476 24.4119C95.0135 23.8438 95.7578 23.054 96.2805 22.0426C96.8033 21.0256 97.0646 19.8466 97.0646 18.5057C97.0646 17.1534 96.8033 15.9716 96.2805 14.9602C95.7578 13.9432 95.0135 13.1534 94.0476 12.5909C93.0874 12.0227 91.9453 11.7386 90.6215 11.7386C89.2976 11.7386 88.1527 12.0227 87.1868 12.5909C86.2266 13.1534 85.4851 13.9432 84.9624 14.9602C84.4396 15.9716 84.1783 17.1534 84.1783 18.5057C84.1783 19.8466 84.4396 21.0256 84.9624 22.0426C85.4851 23.054 86.2266 23.8438 87.1868 24.4119ZM92.147 21.9318C91.7436 22.2727 91.2408 22.4432 90.6385 22.4432C90.0305 22.4432 89.5192 22.2727 89.1044 21.9318C88.6953 21.5852 88.3857 21.1136 88.1754 20.517C87.9709 19.9205 87.8686 19.2415 87.8686 18.4801C87.8686 17.7188 87.9709 17.0398 88.1754 16.4432C88.3857 15.8466 88.6953 15.375 89.1044 15.0284C89.5192 14.6818 90.0305 14.5085 90.6385 14.5085C91.2408 14.5085 91.7436 14.6818 92.147 15.0284C92.5504 15.375 92.8544 15.8466 93.059 16.4432C93.2692 17.0398 93.3743 17.7188 93.3743 18.4801C93.3743 19.2415 93.2692 19.9205 93.059 20.517C92.8544 21.1136 92.5504 21.5852 92.147 21.9318ZM106.388 14.6364V11.9091H103.925V8.77273H100.295V11.9091H98.505V14.6364H100.295V21.4545C100.289 22.3125 100.468 23.0227 100.832 23.5852C101.195 24.1477 101.704 24.5625 102.357 24.8295C103.016 25.0966 103.783 25.2131 104.658 25.179C105.13 25.1619 105.531 25.1136 105.86 25.0341C106.19 24.9602 106.445 24.8949 106.627 24.8381L106.056 22.1364C105.965 22.1534 105.835 22.179 105.664 22.2131C105.494 22.2415 105.323 22.2557 105.153 22.2557C104.908 22.2557 104.692 22.2188 104.505 22.1449C104.323 22.071 104.181 21.9432 104.079 21.7614C103.977 21.5739 103.925 21.3125 103.925 20.9773V14.6364H106.388ZM111.102 24.4375C112.073 24.983 113.232 25.2557 114.579 25.2557C115.658 25.2557 116.61 25.0909 117.434 24.7614C118.263 24.4261 118.94 23.9602 119.462 23.3636C119.991 22.7614 120.34 22.0568 120.511 21.25L117.153 21.0284C117.028 21.358 116.846 21.6364 116.607 21.8636C116.369 22.0909 116.082 22.2614 115.746 22.375C115.411 22.4886 115.042 22.5455 114.638 22.5455C114.031 22.5455 113.505 22.4176 113.062 22.1619C112.619 21.9062 112.275 21.5426 112.031 21.071C111.792 20.5994 111.673 20.0398 111.673 19.392V19.3835H120.587V18.3864C120.587 17.2727 120.431 16.3011 120.119 15.4716C119.806 14.6364 119.369 13.9432 118.806 13.392C118.249 12.8409 117.596 12.429 116.846 12.1562C116.102 11.8778 115.298 11.7386 114.434 11.7386C113.15 11.7386 112.031 12.0227 111.076 12.5909C110.127 13.1591 109.391 13.9517 108.869 14.9688C108.346 15.9858 108.085 17.1676 108.085 18.5142C108.085 19.8949 108.346 21.0909 108.869 22.1023C109.391 23.108 110.136 23.8864 111.102 24.4375ZM111.676 17.1335C111.698 16.6634 111.819 16.2345 112.039 15.8466C112.278 15.4205 112.607 15.0824 113.028 14.8324C113.454 14.5767 113.942 14.4489 114.494 14.4489C115.022 14.4489 115.485 14.5653 115.883 14.7983C116.286 15.0256 116.602 15.3409 116.829 15.7443C117.056 16.1477 117.17 16.6108 117.17 17.1335H111.676ZM125.411 24.4034C126.377 24.9716 127.531 25.2557 128.871 25.2557C130.036 25.2557 131.045 25.0426 131.897 24.6165C132.749 24.1903 133.417 23.5994 133.9 22.8438C134.388 22.0824 134.661 21.2017 134.718 20.2017H131.292C131.224 20.6619 131.079 21.0568 130.857 21.3864C130.641 21.7102 130.366 21.9574 130.031 22.1278C129.701 22.2983 129.329 22.3835 128.914 22.3835C128.352 22.3835 127.86 22.2301 127.44 21.9233C127.019 21.6165 126.692 21.1705 126.46 20.5852C126.232 20 126.119 19.2898 126.119 18.4545C126.119 17.6307 126.235 16.929 126.468 16.3494C126.701 15.7699 127.025 15.3295 127.44 15.0284C127.86 14.7216 128.352 14.5682 128.914 14.5682C129.579 14.5682 130.116 14.7699 130.525 15.1733C130.94 15.571 131.195 16.0966 131.292 16.75H134.718C134.667 15.7386 134.391 14.858 133.891 14.108C133.391 13.358 132.712 12.7756 131.854 12.3608C130.996 11.946 129.996 11.7386 128.854 11.7386C127.531 11.7386 126.388 12.0256 125.428 12.5994C124.468 13.1676 123.727 13.9602 123.204 14.9773C122.687 15.9886 122.428 17.1648 122.428 18.5057C122.428 19.8295 122.684 21 123.195 22.017C123.712 23.0341 124.451 23.8295 125.411 24.4034ZM144.006 14.6364V11.9091H141.543V8.77273H137.912V11.9091H136.122V14.6364H137.912V21.4545C137.906 22.3125 138.085 23.0227 138.449 23.5852C138.812 24.1477 139.321 24.5625 139.974 24.8295C140.634 25.0966 141.401 25.2131 142.276 25.179C142.747 25.1619 143.148 25.1136 143.477 25.0341C143.807 24.9602 144.062 24.8949 144.244 24.8381L143.673 22.1364C143.582 22.1534 143.452 22.179 143.281 22.2131C143.111 22.2415 142.94 22.2557 142.77 22.2557C142.526 22.2557 142.31 22.2188 142.122 22.1449C141.94 22.071 141.798 21.9432 141.696 21.7614C141.594 21.5739 141.543 21.3125 141.543 20.9773V14.6364H144.006Z" fill="white"/>
</svg>
