<svg width="28" height="28" viewBox="0 0 28 28" fill="none" xmlns="http://www.w3.org/2000/svg">
<path fill-rule="evenodd" clip-rule="evenodd" d="M6 12C9.31371 12 12 9.31371 12 6C12 2.68629 9.31371 0 6 0C2.68629 0 0 2.68629 0 6C0 9.31371 2.68629 12 6 12ZM22 12C25.3137 12 28 9.31371 28 6C28 2.68629 25.3137 0 22 0C18.6863 0 16 2.68629 16 6C16 9.31371 18.6863 12 22 12ZM12 22C12 25.3137 9.31371 28 6 28C2.68629 28 0 25.3137 0 22C0 18.6863 2.68629 16 6 16C9.31371 16 12 18.6863 12 22ZM22 28C25.3137 28 28 25.3137 28 22C28 18.6863 25.3137 16 22 16C18.6863 16 16 18.6863 16 22C16 25.3137 18.6863 28 22 28Z" fill="white"/>
</svg>
