<svg width="68" height="61" viewBox="0 0 68 61" fill="none" xmlns="http://www.w3.org/2000/svg">
<rect width="68" height="60.9917" rx="5" fill="#0C6253"/>
<path d="M42.8 12H25.4467C24.6488 12 24 12.6491 24 13.4468V47.5485C24 48.3463 24.6488 48.995 25.4467 48.995H42.8C43.5979 48.995 44.2463 48.3463 44.2463 47.5485V13.4468C44.2467 12.6491 43.5979 12 42.8 12ZM32.7045 45.8815C32.7045 45.0977 33.339 44.4622 34.1233 44.4622C34.9088 44.4622 35.5422 45.0977 35.5422 45.8815C35.5422 46.6657 34.9088 47.3009 34.1233 47.3009C33.339 47.3009 32.7045 46.6657 32.7045 45.8815ZM25.0994 43.449V16.4984H43.1481V43.449H25.0994Z" fill="white"/>
</svg>
