<svg width="19" height="17" viewBox="0 0 19 17" fill="none" xmlns="http://www.w3.org/2000/svg">
<path d="M18.4769 6.40648C18.3941 6.15855 18.2343 5.94022 18.0187 5.78011C17.803 5.62 17.5415 5.52559 17.2685 5.50926L12.3518 5.18657L10.5309 0.818518C10.4314 0.578003 10.2584 0.371406 10.034 0.225473C9.80973 0.0795413 9.54452 0.000993936 9.27273 0C9.00094 0.000993936 8.73572 0.0795413 8.51142 0.225473C8.28711 0.371406 8.11403 0.578003 8.0146 0.818518L6.16051 5.21018L1.27698 5.50926C1.00425 5.52665 0.743283 5.62145 0.527839 5.78141C0.312394 5.94137 0.152385 6.15911 0.0685104 6.40648C-0.0176213 6.65764 -0.0226537 6.92758 0.0540622 7.18149C0.130778 7.43539 0.285725 7.66163 0.498924 7.83102L4.25676 10.8532L3.13934 15.0324C3.06203 15.3151 3.07594 15.6134 3.17927 15.8885C3.2826 16.1636 3.47057 16.4028 3.71874 16.575C3.95964 16.7394 4.24664 16.8317 4.54302 16.8401C4.8394 16.8485 5.13168 16.7727 5.38246 16.6222L9.26445 14.2847H9.28101L13.461 16.7954C13.6754 16.9279 13.9254 16.9989 14.1811 17C14.3899 16.9984 14.5955 16.9514 14.7822 16.8624C14.9689 16.7735 15.1316 16.645 15.2579 16.4869C15.3842 16.3288 15.4707 16.1453 15.5107 15.9505C15.5508 15.7556 15.5433 15.5546 15.4889 15.363L14.3053 10.7903L18.0465 7.83102C18.2597 7.66163 18.4147 7.43539 18.4914 7.18149C18.5681 6.92758 18.5631 6.65764 18.4769 6.40648Z" fill="#FFC14B"/>
</svg>
