<svg width="65" height="65" viewBox="0 0 65 65" fill="none" xmlns="http://www.w3.org/2000/svg">
<circle cx="32.161" cy="32.868" r="31.8856" fill="#EEEEEE"/>
<path d="M25.3029 30.6119L25.7977 31.9533C25.8163 32.0038 25.8644 32.0373 25.9181 32.0373C25.9719 32.0373 26.02 32.0038 26.0386 31.9533L26.5333 30.6119C26.9338 29.5259 27.7898 28.6699 28.8757 28.2695L30.2171 27.7747C30.2675 27.7561 30.301 27.7081 30.301 27.6543C30.301 27.6005 30.2675 27.5525 30.2171 27.5339L28.8756 27.0391C27.7897 26.6387 26.9337 25.7827 26.5333 24.6968L26.0386 23.3554C26.02 23.305 25.9719 23.2715 25.9181 23.2715C25.8644 23.2715 25.8163 23.305 25.7977 23.3554L25.3029 24.6968C24.9025 25.7827 24.0465 26.6387 22.9606 27.0391L21.6191 27.5339C21.5686 27.5525 21.5352 27.6005 21.5352 27.6543C21.5352 27.7081 21.5686 27.7561 21.6191 27.7747L22.9605 28.2695C24.0464 28.6699 24.9025 29.5258 25.3029 30.6119Z" fill="#0C6253"/>
<path d="M36.1779 36.2779L34.8366 35.7833C33.7506 35.3828 32.8946 34.5268 32.4942 33.441L31.9994 32.0995C31.9808 32.0491 31.9327 32.0156 31.879 32.0156C31.8252 32.0156 31.7772 32.0491 31.7586 32.0995L31.2638 33.4409C30.8633 34.5268 30.0073 35.3828 28.9214 35.7833L27.58 36.2779C27.5296 36.2965 27.4961 36.3446 27.4961 36.3984C27.4961 36.4521 27.5296 36.5002 27.58 36.5188L28.9215 37.0136C30.0074 37.4141 30.8633 38.2701 31.2638 39.3559L31.7586 40.6974C31.7772 40.7478 31.8252 40.7813 31.879 40.7813C31.9327 40.7813 31.9808 40.7478 31.9994 40.6974L32.4942 39.3559C32.8946 38.2701 33.7506 37.414 34.8365 37.0136L36.178 36.5188C36.2284 36.5002 36.2619 36.4521 36.2619 36.3984C36.2619 36.3446 36.2283 36.2965 36.1779 36.2779Z" fill="#0C6253"/>
<path d="M43.121 30.5394L42.2093 30.2032C41.4714 29.931 40.8896 29.3492 40.6174 28.6113L40.2812 27.6997C40.2685 27.6654 40.2359 27.6426 40.1994 27.6426C40.1628 27.6426 40.1302 27.6654 40.1175 27.6997L39.7814 28.6112C39.5092 29.3492 38.9274 29.931 38.1894 30.2032L37.2778 30.5394C37.2435 30.552 37.2207 30.5846 37.2207 30.6212C37.2207 30.6577 37.2435 30.6904 37.2778 30.703L38.1895 31.0392C38.9274 31.3114 39.5092 31.8932 39.7814 32.6311L40.1175 33.5429C40.1302 33.5771 40.1628 33.6 40.1994 33.6C40.2359 33.6 40.2685 33.5771 40.2812 33.5429L40.6174 32.6311C40.8896 31.8931 41.4713 31.3114 42.2093 31.0392L43.121 30.703C43.1553 30.6904 43.1781 30.6577 43.1781 30.6212C43.1781 30.5846 43.1553 30.552 43.121 30.5394Z" fill="#0C6253"/>
<path d="M40.9126 42.54L40.2766 42.3054C39.7618 42.1156 39.3561 41.7098 39.1662 41.1951L38.9317 40.5593C38.9229 40.5354 38.9001 40.5195 38.8746 40.5195C38.8491 40.5195 38.8263 40.5354 38.8175 40.5593L38.5829 41.1951C38.3931 41.7099 37.9873 42.1156 37.4726 42.3054L36.8366 42.54C36.8128 42.5488 36.7969 42.5716 36.7969 42.5971C36.7969 42.6226 36.8128 42.6454 36.8366 42.6542L37.4725 42.8888C37.9874 43.0786 38.3931 43.4844 38.583 43.9992L38.8176 44.6351C38.8263 44.659 38.8492 44.6749 38.8746 44.6749C38.9001 44.6749 38.923 44.659 38.9317 44.6351L39.1663 43.9992C39.3562 43.4844 39.7619 43.0786 40.2768 42.8888L40.9127 42.6542C40.9365 42.6454 40.9524 42.6226 40.9524 42.5971C40.9524 42.5716 40.9365 42.5488 40.9126 42.54Z" fill="#0C6253"/>
<path d="M36.2231 24.2588L35.5872 24.0243C35.0724 23.8345 34.6666 23.4287 34.4769 22.9139L34.2423 22.2781C34.2335 22.2542 34.2107 22.2383 34.1852 22.2383C34.1597 22.2383 34.1369 22.2542 34.1281 22.278L33.8936 22.9138C33.7038 23.4286 33.2979 23.8344 32.7832 24.0242L32.1472 24.2588C32.1233 24.2675 32.1074 24.2904 32.1074 24.3158C32.1074 24.3413 32.1233 24.3641 32.1472 24.3729L32.7831 24.6075C33.2979 24.7973 33.7038 25.2032 33.8936 25.718L34.1281 26.3538C34.1369 26.3777 34.1597 26.3936 34.1852 26.3936C34.2107 26.3936 34.2335 26.3777 34.2423 26.3538L34.4769 25.718C34.6667 25.2031 35.0725 24.7973 35.5873 24.6076L36.2232 24.373C36.2471 24.3642 36.263 24.3414 36.263 24.3159C36.263 24.2904 36.2471 24.2676 36.2231 24.2588Z" fill="#0C6253"/>
<path d="M28.4229 41.2349L27.623 40.94C26.9756 40.7013 26.4651 40.1908 26.2262 39.5433L25.9313 38.7434C25.9201 38.7134 25.8915 38.6934 25.8594 38.6934C25.8274 38.6934 25.7987 38.7134 25.7876 38.7434L25.4927 39.5432C25.2539 40.1907 24.7435 40.7012 24.0959 40.94L23.2961 41.2349C23.266 41.2459 23.2461 41.2746 23.2461 41.3067C23.2461 41.3388 23.2661 41.3675 23.2961 41.3785L24.0959 41.6735C24.7434 41.9123 25.2539 42.4227 25.4927 43.0703L25.7876 43.8702C25.7987 43.9002 25.8274 43.9202 25.8594 43.9202C25.8915 43.9202 25.9202 43.9002 25.9313 43.8702L26.2263 43.0702C26.465 42.4227 26.9754 41.9124 27.6229 41.6735L28.4229 41.3785C28.453 41.3675 28.4729 41.3388 28.4729 41.3067C28.4729 41.2746 28.4531 41.2459 28.4229 41.2349Z" fill="#0C6253"/>
</svg>
