<svg width="53" height="54" viewBox="0 0 53 54" fill="none" xmlns="http://www.w3.org/2000/svg">
<g clip-path="url(#clip0_701_1890)">
<rect opacity="0.1" x="0.150391" y="0.892578" width="52.4551" height="52.4551" rx="26.2275" fill="#05A589"/>
<path d="M34.6846 18.707H18.9071C18.2104 18.707 17.6367 19.3217 17.6367 20.0593V35.7549C17.6367 36.4925 18.2104 37.0663 18.9071 37.0663H34.6846C35.3813 37.0663 35.996 36.4925 35.996 35.7549V20.0593C35.996 19.3217 35.3813 18.707 34.6846 18.707ZM23.1691 34.4435H20.4644V25.7147H23.1691V34.4435ZM21.8167 24.4852C20.9152 24.4852 20.2185 23.7886 20.2185 22.928C20.2185 22.0674 20.9152 21.3297 21.8167 21.3297C22.6773 21.3297 23.374 22.0674 23.374 22.928C23.374 23.7886 22.6773 24.4852 21.8167 24.4852ZM33.3732 34.4435H30.6275V30.1815C30.6275 29.198 30.6275 27.8866 29.2342 27.8866C27.7999 27.8866 27.595 28.9931 27.595 30.1405V34.4435H24.8903V25.7147H27.472V26.9031H27.513C27.8819 26.2064 28.7834 25.4688 30.0948 25.4688C32.8405 25.4688 33.3732 27.3129 33.3732 29.6488V34.4435Z" fill="#0C6253"/>
</g>
<defs>
<clipPath id="clip0_701_1890">
<rect width="52.4551" height="52.4479" fill="white" transform="translate(0.150391 0.892578)"/>
</clipPath>
</defs>
</svg>
