<svg width="88" height="57" viewBox="0 0 88 57" fill="none" xmlns="http://www.w3.org/2000/svg">
<path d="M1.722 53.7221H3.57V47.8601C3.57 47.6841 3.576 47.5061 3.588 47.3261L2.052 48.6401C2.012 48.6721 1.972 48.6961 1.932 48.7121C1.892 48.7241 1.854 48.7301 1.818 48.7301C1.758 48.7301 1.704 48.7181 1.656 48.6941C1.608 48.6661 1.572 48.6341 1.548 48.5981L1.212 48.1361L3.768 45.9221H4.638V53.7221H6.33V54.5381H1.722V53.7221ZM9.36525 45.9401H10.3313C10.4353 45.9401 10.5213 45.9661 10.5893 46.0181C10.6573 46.0701 10.7033 46.1361 10.7273 46.2161L12.5033 52.1921C12.5353 52.3001 12.5633 52.4161 12.5872 52.5401C12.6153 52.6641 12.6413 52.7941 12.6653 52.9301C12.6933 52.7941 12.7213 52.6641 12.7493 52.5401C12.7773 52.4121 12.8093 52.2961 12.8453 52.1921L14.8673 46.2161C14.8913 46.1481 14.9373 46.0861 15.0053 46.0301C15.0773 45.9701 15.1633 45.9401 15.2633 45.9401H15.5993C15.7033 45.9401 15.7873 45.9661 15.8513 46.0181C15.9193 46.0701 15.9673 46.1361 15.9953 46.2161L18.0053 52.1921C18.0773 52.4001 18.1413 52.6381 18.1973 52.9061C18.2213 52.7741 18.2433 52.6481 18.2633 52.5281C18.2833 52.4081 18.3093 52.2961 18.3413 52.1921L20.1233 46.2161C20.1433 46.1441 20.1873 46.0801 20.2553 46.0241C20.3273 45.9681 20.4133 45.9401 20.5133 45.9401H21.4193L18.7373 54.5381H17.6933L15.5153 47.9801C15.4713 47.8561 15.4313 47.7121 15.3953 47.5481C15.3753 47.6281 15.3553 47.7061 15.3353 47.7821C15.3193 47.8541 15.3012 47.9201 15.2812 47.9801L13.0913 54.5381H12.0473L9.36525 45.9401ZM24.5984 48.3641C24.9624 48.3641 25.2984 48.4261 25.6064 48.5501C25.9144 48.6701 26.1804 48.8461 26.4044 49.0781C26.6284 49.3061 26.8024 49.5901 26.9264 49.9301C27.0544 50.2661 27.1184 50.6501 27.1184 51.0821C27.1184 51.2501 27.1004 51.3621 27.0644 51.4181C27.0284 51.4741 26.9604 51.5021 26.8604 51.5021H22.8164C22.8244 51.8861 22.8764 52.2201 22.9724 52.5041C23.0684 52.7881 23.2004 53.0261 23.3684 53.2181C23.5364 53.4061 23.7364 53.5481 23.9684 53.6441C24.2004 53.7361 24.4604 53.7821 24.7484 53.7821C25.0164 53.7821 25.2464 53.7521 25.4384 53.6921C25.6344 53.6281 25.8024 53.5601 25.9424 53.4881C26.0824 53.4161 26.1984 53.3501 26.2904 53.2901C26.3864 53.2261 26.4684 53.1941 26.5364 53.1941C26.6244 53.1941 26.6924 53.2281 26.7404 53.2961L27.0404 53.6861C26.9084 53.8461 26.7504 53.9861 26.5664 54.1061C26.3824 54.2221 26.1844 54.3181 25.9724 54.3941C25.7644 54.4701 25.5484 54.5261 25.3244 54.5621C25.1004 54.6021 24.8784 54.6221 24.6584 54.6221C24.2384 54.6221 23.8504 54.5521 23.4944 54.4121C23.1424 54.2681 22.8364 54.0601 22.5764 53.7881C22.3204 53.5121 22.1204 53.1721 21.9764 52.7681C21.8324 52.3641 21.7604 51.9001 21.7604 51.3761C21.7604 50.9521 21.8244 50.5561 21.9524 50.1881C22.0844 49.8201 22.2724 49.5021 22.5164 49.2341C22.7604 48.9621 23.0584 48.7501 23.4104 48.5981C23.7624 48.4421 24.1584 48.3641 24.5984 48.3641ZM24.6224 49.1501C24.1064 49.1501 23.7004 49.3001 23.4044 49.6001C23.1084 49.8961 22.9244 50.3081 22.8524 50.8361H26.1584C26.1584 50.5881 26.1244 50.3621 26.0564 50.1581C25.9884 49.9501 25.8884 49.7721 25.7564 49.6241C25.6244 49.4721 25.4624 49.3561 25.2704 49.2761C25.0824 49.1921 24.8664 49.1501 24.6224 49.1501ZM30.8914 48.3641C31.2554 48.3641 31.5914 48.4261 31.8994 48.5501C32.2074 48.6701 32.4734 48.8461 32.6974 49.0781C32.9214 49.3061 33.0954 49.5901 33.2194 49.9301C33.3474 50.2661 33.4114 50.6501 33.4114 51.0821C33.4114 51.2501 33.3934 51.3621 33.3574 51.4181C33.3214 51.4741 33.2534 51.5021 33.1534 51.5021H29.1094C29.1174 51.8861 29.1694 52.2201 29.2654 52.5041C29.3614 52.7881 29.4934 53.0261 29.6614 53.2181C29.8294 53.4061 30.0294 53.5481 30.2614 53.6441C30.4934 53.7361 30.7534 53.7821 31.0414 53.7821C31.3094 53.7821 31.5394 53.7521 31.7314 53.6921C31.9274 53.6281 32.0954 53.5601 32.2354 53.4881C32.3754 53.4161 32.4914 53.3501 32.5834 53.2901C32.6794 53.2261 32.7614 53.1941 32.8294 53.1941C32.9174 53.1941 32.9854 53.2281 33.0334 53.2961L33.3334 53.6861C33.2014 53.8461 33.0434 53.9861 32.8594 54.1061C32.6754 54.2221 32.4774 54.3181 32.2654 54.3941C32.0574 54.4701 31.8414 54.5261 31.6174 54.5621C31.3934 54.6021 31.1714 54.6221 30.9514 54.6221C30.5314 54.6221 30.1434 54.5521 29.7874 54.4121C29.4354 54.2681 29.1294 54.0601 28.8694 53.7881C28.6134 53.5121 28.4134 53.1721 28.2694 52.7681C28.1254 52.3641 28.0534 51.9001 28.0534 51.3761C28.0534 50.9521 28.1174 50.5561 28.2454 50.1881C28.3774 49.8201 28.5654 49.5021 28.8094 49.2341C29.0534 48.9621 29.3514 48.7501 29.7034 48.5981C30.0554 48.4421 30.4514 48.3641 30.8914 48.3641ZM30.9154 49.1501C30.3994 49.1501 29.9934 49.3001 29.6974 49.6001C29.4014 49.8961 29.2174 50.3081 29.1454 50.8361H32.4514C32.4514 50.5881 32.4174 50.3621 32.3494 50.1581C32.2814 49.9501 32.1814 49.7721 32.0494 49.6241C31.9174 49.4721 31.7554 49.3561 31.5634 49.2761C31.3754 49.1921 31.1594 49.1501 30.9154 49.1501ZM35.8883 45.7001V50.9021H36.1643C36.2443 50.9021 36.3103 50.8921 36.3623 50.8721C36.4143 50.8481 36.4723 50.8021 36.5363 50.7341L38.4563 48.6761C38.5163 48.6121 38.5763 48.5601 38.6363 48.5201C38.6963 48.4801 38.7763 48.4601 38.8763 48.4601H39.8483L37.6103 50.8421C37.5543 50.9101 37.4983 50.9701 37.4423 51.0221C37.3903 51.0741 37.3303 51.1201 37.2623 51.1601C37.3343 51.2081 37.3983 51.2641 37.4543 51.3281C37.5143 51.3881 37.5703 51.4581 37.6223 51.5381L39.9983 54.5381H39.0383C38.9503 54.5381 38.8743 54.5221 38.8103 54.4901C38.7503 54.4541 38.6923 54.4001 38.6363 54.3281L36.6383 51.8381C36.5783 51.7541 36.5183 51.7001 36.4583 51.6761C36.3983 51.6481 36.3083 51.6341 36.1883 51.6341H35.8883V54.5381H34.8143V45.7001H35.8883ZM51.0116 50.2421C51.0116 50.8861 50.9096 51.4721 50.7056 52.0001C50.5016 52.5281 50.2136 52.9801 49.8416 53.3561C49.4696 53.7321 49.0236 54.0241 48.5036 54.2321C47.9836 54.4361 47.4076 54.5381 46.7756 54.5381H43.5596V45.9401H46.7756C47.4076 45.9401 47.9836 46.0441 48.5036 46.2521C49.0236 46.4561 49.4696 46.7481 49.8416 47.1281C50.2136 47.5041 50.5016 47.9561 50.7056 48.4841C50.9096 49.0121 51.0116 49.5981 51.0116 50.2421ZM49.8176 50.2421C49.8176 49.7141 49.7456 49.2421 49.6016 48.8261C49.4576 48.4101 49.2536 48.0581 48.9896 47.7701C48.7256 47.4821 48.4056 47.2621 48.0296 47.1101C47.6536 46.9581 47.2356 46.8821 46.7756 46.8821H44.7296V53.5961H46.7756C47.2356 53.5961 47.6536 53.5201 48.0296 53.3681C48.4056 53.2161 48.7256 52.9981 48.9896 52.7141C49.2536 52.4261 49.4576 52.0741 49.6016 51.6581C49.7456 51.2421 49.8176 50.7701 49.8176 50.2421ZM54.8328 48.3641C55.1968 48.3641 55.5328 48.4261 55.8408 48.5501C56.1488 48.6701 56.4148 48.8461 56.6388 49.0781C56.8628 49.3061 57.0368 49.5901 57.1608 49.9301C57.2888 50.2661 57.3528 50.6501 57.3528 51.0821C57.3528 51.2501 57.3348 51.3621 57.2988 51.4181C57.2628 51.4741 57.1948 51.5021 57.0948 51.5021H53.0508C53.0588 51.8861 53.1108 52.2201 53.2068 52.5041C53.3028 52.7881 53.4348 53.0261 53.6028 53.2181C53.7708 53.4061 53.9708 53.5481 54.2028 53.6441C54.4348 53.7361 54.6948 53.7821 54.9828 53.7821C55.2508 53.7821 55.4808 53.7521 55.6728 53.6921C55.8688 53.6281 56.0368 53.5601 56.1768 53.4881C56.3168 53.4161 56.4328 53.3501 56.5248 53.2901C56.6208 53.2261 56.7028 53.1941 56.7708 53.1941C56.8588 53.1941 56.9268 53.2281 56.9748 53.2961L57.2748 53.6861C57.1428 53.8461 56.9848 53.9861 56.8008 54.1061C56.6168 54.2221 56.4188 54.3181 56.2068 54.3941C55.9988 54.4701 55.7828 54.5261 55.5588 54.5621C55.3348 54.6021 55.1128 54.6221 54.8928 54.6221C54.4728 54.6221 54.0848 54.5521 53.7288 54.4121C53.3768 54.2681 53.0708 54.0601 52.8108 53.7881C52.5548 53.5121 52.3548 53.1721 52.2108 52.7681C52.0668 52.3641 51.9948 51.9001 51.9948 51.3761C51.9948 50.9521 52.0588 50.5561 52.1868 50.1881C52.3188 49.8201 52.5068 49.5021 52.7508 49.2341C52.9948 48.9621 53.2928 48.7501 53.6448 48.5981C53.9968 48.4421 54.3928 48.3641 54.8328 48.3641ZM54.8568 49.1501C54.3408 49.1501 53.9348 49.3001 53.6388 49.6001C53.3428 49.8961 53.1588 50.3081 53.0868 50.8361H56.3928C56.3928 50.5881 56.3588 50.3621 56.2908 50.1581C56.2228 49.9501 56.1228 49.7721 55.9908 49.6241C55.8588 49.4721 55.6968 49.3561 55.5048 49.2761C55.3168 49.1921 55.1008 49.1501 54.8568 49.1501ZM59.9078 45.7001V54.5381H58.8398V45.7001H59.9078ZM62.9781 48.4601V54.5381H61.9101V48.4601H62.9781ZM63.2181 46.5521C63.2181 46.6561 63.1961 46.7541 63.1521 46.8461C63.1121 46.9341 63.0561 47.0141 62.9841 47.0861C62.9161 47.1541 62.8361 47.2081 62.7441 47.2481C62.6521 47.2881 62.5541 47.3081 62.4501 47.3081C62.3461 47.3081 62.2481 47.2881 62.1561 47.2481C62.0681 47.2081 61.9881 47.1541 61.9161 47.0861C61.8481 47.0141 61.7941 46.9341 61.7541 46.8461C61.7141 46.7541 61.6941 46.6561 61.6941 46.5521C61.6941 46.4481 61.7141 46.3501 61.7541 46.2581C61.7941 46.1621 61.8481 46.0801 61.9161 46.0121C61.9881 45.9401 62.0681 45.8841 62.1561 45.8441C62.2481 45.8041 62.3461 45.7841 62.4501 45.7841C62.5541 45.7841 62.6521 45.8041 62.7441 45.8441C62.8361 45.8841 62.9161 45.9401 62.9841 46.0121C63.0561 46.0801 63.1121 46.1621 63.1521 46.2581C63.1961 46.3501 63.2181 46.4481 63.2181 46.5521ZM64.0924 48.4601H64.9684C65.0524 48.4601 65.1224 48.4821 65.1784 48.5261C65.2344 48.5701 65.2744 48.6221 65.2984 48.6821L66.8404 52.5941C66.8964 52.7381 66.9404 52.8821 66.9724 53.0261C67.0044 53.1701 67.0344 53.3121 67.0624 53.4521C67.0944 53.3121 67.1284 53.1701 67.1644 53.0261C67.2004 52.8821 67.2464 52.7381 67.3024 52.5941L68.8624 48.6821C68.8864 48.6181 68.9244 48.5661 68.9764 48.5261C69.0324 48.4821 69.1004 48.4601 69.1804 48.4601H70.0144L67.5364 54.5381H66.5704L64.0924 48.4601ZM73.2547 48.3641C73.6187 48.3641 73.9547 48.4261 74.2627 48.5501C74.5707 48.6701 74.8367 48.8461 75.0607 49.0781C75.2847 49.3061 75.4587 49.5901 75.5827 49.9301C75.7107 50.2661 75.7747 50.6501 75.7747 51.0821C75.7747 51.2501 75.7567 51.3621 75.7207 51.4181C75.6847 51.4741 75.6167 51.5021 75.5167 51.5021H71.4727C71.4807 51.8861 71.5327 52.2201 71.6287 52.5041C71.7247 52.7881 71.8567 53.0261 72.0247 53.2181C72.1927 53.4061 72.3927 53.5481 72.6247 53.6441C72.8567 53.7361 73.1167 53.7821 73.4047 53.7821C73.6727 53.7821 73.9027 53.7521 74.0947 53.6921C74.2907 53.6281 74.4587 53.5601 74.5987 53.4881C74.7387 53.4161 74.8547 53.3501 74.9467 53.2901C75.0427 53.2261 75.1247 53.1941 75.1927 53.1941C75.2807 53.1941 75.3487 53.2281 75.3967 53.2961L75.6967 53.6861C75.5647 53.8461 75.4067 53.9861 75.2227 54.1061C75.0387 54.2221 74.8407 54.3181 74.6287 54.3941C74.4207 54.4701 74.2047 54.5261 73.9807 54.5621C73.7567 54.6021 73.5347 54.6221 73.3147 54.6221C72.8947 54.6221 72.5067 54.5521 72.1507 54.4121C71.7987 54.2681 71.4927 54.0601 71.2327 53.7881C70.9767 53.5121 70.7767 53.1721 70.6327 52.7681C70.4887 52.3641 70.4167 51.9001 70.4167 51.3761C70.4167 50.9521 70.4807 50.5561 70.6087 50.1881C70.7407 49.8201 70.9287 49.5021 71.1727 49.2341C71.4167 48.9621 71.7147 48.7501 72.0667 48.5981C72.4187 48.4421 72.8147 48.3641 73.2547 48.3641ZM73.2787 49.1501C72.7627 49.1501 72.3567 49.3001 72.0607 49.6001C71.7647 49.8961 71.5807 50.3081 71.5087 50.8361H74.8147C74.8147 50.5881 74.7807 50.3621 74.7127 50.1581C74.6447 49.9501 74.5447 49.7721 74.4127 49.6241C74.2807 49.4721 74.1187 49.3561 73.9267 49.2761C73.7387 49.1921 73.5227 49.1501 73.2787 49.1501ZM77.1416 54.5381V48.4601H77.7536C77.8696 48.4601 77.9496 48.4821 77.9936 48.5261C78.0376 48.5701 78.0676 48.6461 78.0836 48.7541L78.1556 49.7021C78.3636 49.2781 78.6196 48.9481 78.9236 48.7121C79.2316 48.4721 79.5916 48.3521 80.0036 48.3521C80.1716 48.3521 80.3236 48.3721 80.4596 48.4121C80.5956 48.4481 80.7216 48.5001 80.8376 48.5681L80.6996 49.3661C80.6716 49.4661 80.6096 49.5161 80.5136 49.5161C80.4576 49.5161 80.3716 49.4981 80.2556 49.4621C80.1396 49.4221 79.9776 49.4021 79.7696 49.4021C79.3976 49.4021 79.0856 49.5101 78.8336 49.7261C78.5856 49.9421 78.3776 50.2561 78.2096 50.6681V54.5381H77.1416ZM83.7635 56.3321C83.7275 56.4121 83.6815 56.4761 83.6255 56.5241C83.5735 56.5721 83.4915 56.5961 83.3795 56.5961H82.5875L83.6975 54.1841L81.1895 48.4601H82.1135C82.2055 48.4601 82.2775 48.4841 82.3295 48.5321C82.3815 48.5761 82.4195 48.6261 82.4435 48.6821L84.0695 52.5101C84.1055 52.5981 84.1355 52.6861 84.1595 52.7741C84.1875 52.8621 84.2115 52.9521 84.2315 53.0441C84.2595 52.9521 84.2875 52.8621 84.3155 52.7741C84.3435 52.6861 84.3755 52.5961 84.4115 52.5041L85.9895 48.6821C86.0135 48.6181 86.0535 48.5661 86.1095 48.5261C86.1695 48.4821 86.2335 48.4601 86.3015 48.4601H87.1535L83.7635 56.3321Z" fill="#0C6253"/>
<path d="M44.1773 0.1875C35.2428 0.1875 28 7.42934 28 16.3626C28 25.2958 35.2428 32.5377 44.1773 32.5377C53.1118 32.5377 60.3546 25.2958 60.3546 16.3626C60.3451 7.43333 53.1078 0.197045 44.1773 0.1875ZM45.3328 16.3626C45.3328 17.0007 44.8155 17.518 44.1773 17.518H34.9331C34.2949 17.518 33.7776 17.0007 33.7776 16.3626C33.7776 15.7245 34.2949 15.2072 34.9331 15.2072H43.0218V7.11969C43.0218 6.48158 43.5392 5.9643 44.1774 5.9643C44.8156 5.9643 45.3328 6.48158 45.3328 7.11969V16.3626Z" fill="#0C6253"/>
</svg>
