<svg width="32" height="32" viewBox="0 0 32 32" fill="none" xmlns="http://www.w3.org/2000/svg">
<circle cx="16" cy="16" r="15.5" stroke="#5B5F62"/>
<path fill-rule="evenodd" clip-rule="evenodd" d="M12.07 10.315C12.4512 10.1667 12.8877 10.0654 13.5265 10.0363C14.1666 10.0068 14.3712 10 16.0007 10C17.6302 10 17.8347 10.0072 18.4745 10.0363C19.1128 10.0649 19.549 10.1667 19.9309 10.315C20.325 10.4682 20.6599 10.6732 20.9933 11.0071C21.3268 11.341 21.5319 11.6754 21.6855 12.07C21.8338 12.4511 21.9351 12.8875 21.9641 13.5263C21.9932 14.1661 22 14.3706 22 16C22 17.6294 21.9932 17.8335 21.9641 18.4737C21.9355 19.1124 21.8338 19.5487 21.6855 19.9301C21.5319 20.3245 21.3273 20.6595 20.9933 20.9929C20.6594 21.3263 20.325 21.5314 19.9305 21.685C19.549 21.8333 19.1128 21.9346 18.474 21.9637C17.8343 21.9932 17.6297 22 16.0003 22C14.3708 22 14.1666 21.9927 13.5265 21.9637C12.8877 21.9346 12.4519 21.8333 12.07 21.685C11.6753 21.5314 11.341 21.3262 11.0071 20.9929C10.6732 20.6597 10.4682 20.3245 10.315 19.9301C10.1667 19.5487 10.0654 19.1125 10.0363 18.4737C10.0068 17.8339 10 17.6294 10 16C10 14.3706 10.0068 14.1661 10.0363 13.5263C10.0654 12.8876 10.1667 12.4514 10.315 12.07C10.4682 11.6752 10.6732 11.3405 11.0071 11.0071C11.3411 10.6737 11.6753 10.4682 12.07 10.315ZM15.9997 14C14.8953 14 14 14.8955 14 16C14 17.1045 14.8953 18 15.9997 18C17.1043 18 18 17.1043 18 16C18 14.8957 17.1043 14 15.9997 14ZM12.6667 16C12.6667 14.1594 14.1586 12.6667 15.9997 12.6667C17.8405 12.6667 19.3333 14.1591 19.3333 16C19.3333 17.8409 17.8405 19.3333 15.9997 19.3333C14.1586 19.3333 12.6667 17.8407 12.6667 16ZM20 12.6667C20.3682 12.6667 20.6667 12.3682 20.6667 12C20.6667 11.6318 20.3682 11.3333 20 11.3333C19.6318 11.3333 19.3333 11.6318 19.3333 12C19.3333 12.3682 19.6318 12.6667 20 12.6667Z" fill="#5B5F62"/>
</svg>
