<svg width="32" height="32" viewBox="0 0 32 32" fill="none" xmlns="http://www.w3.org/2000/svg">
<circle cx="16" cy="16" r="15.5" stroke="#5B5F62"/>
<path d="M19.0226 10.0027V10H19.7259L19.9829 10.0506C20.1542 10.0835 20.3098 10.1265 20.4495 10.1798C20.5893 10.2331 20.7245 10.2952 20.8552 10.3663C20.986 10.4373 21.1046 10.5097 21.2111 10.5834C21.3165 10.6562 21.4112 10.7334 21.4951 10.8151C21.578 10.8977 21.7074 10.919 21.8832 10.879C22.0591 10.8391 22.2485 10.7836 22.4513 10.7125C22.6542 10.6415 22.8548 10.5616 23.0532 10.4728C23.2516 10.384 23.3724 10.3276 23.4157 10.3037C23.458 10.2788 23.4806 10.2655 23.4833 10.2637L23.486 10.2597L23.4995 10.253L23.5131 10.2464L23.5266 10.2397L23.5401 10.2331L23.5428 10.2291L23.5469 10.2264L23.551 10.2238L23.5537 10.2198L23.5672 10.2158L23.5807 10.2131L23.578 10.2331L23.5739 10.253L23.5672 10.273L23.5604 10.293L23.5537 10.3063L23.5469 10.3196L23.5401 10.3396C23.5356 10.3529 23.5311 10.3707 23.5266 10.3929C23.5221 10.4151 23.4793 10.5039 23.3981 10.6593C23.317 10.8147 23.2155 10.9723 23.0938 11.1321C22.9721 11.2919 22.8629 11.4126 22.7665 11.4943C22.6691 11.5769 22.6046 11.6346 22.5731 11.6675C22.5415 11.7012 22.5031 11.7323 22.4581 11.7607L22.3904 11.8047L22.3769 11.8113L22.3634 11.818L22.3607 11.822L22.3566 11.8246L22.3526 11.8273L22.3499 11.8313L22.3363 11.838L22.3228 11.8446L22.3202 11.8486L22.316 11.8513L22.312 11.8539L22.3093 11.8579L22.3066 11.8619L22.3025 11.8646L22.2985 11.8673L22.2958 11.8713H22.3634L22.7421 11.7913C22.9946 11.7381 23.2358 11.6737 23.4657 11.5982L23.8309 11.4784L23.8715 11.465L23.8918 11.4584L23.9053 11.4517L23.9188 11.4451L23.9324 11.4384L23.9459 11.4317L23.9729 11.4277L24 11.4251V11.4517L23.9932 11.4544L23.9865 11.4584L23.9838 11.4624L23.9797 11.465L23.9756 11.4677L23.9729 11.4717L23.9702 11.4757L23.9662 11.4784L23.9621 11.481L23.9594 11.485L23.9567 11.489L23.9527 11.4917L23.9459 11.505L23.9391 11.5183L23.9351 11.521C23.9333 11.5236 23.876 11.5991 23.7633 11.7474C23.6506 11.8966 23.5898 11.972 23.5807 11.9738C23.5717 11.9765 23.5591 11.9898 23.5428 12.0138C23.5275 12.0386 23.432 12.1376 23.2561 12.3108C23.0803 12.4839 22.9081 12.638 22.7394 12.7729C22.5699 12.9088 22.4843 13.0757 22.4825 13.2737C22.4798 13.4708 22.4693 13.6937 22.4513 13.9423C22.4333 14.1909 22.3995 14.4595 22.3499 14.748C22.3003 15.0366 22.2236 15.3629 22.1199 15.727C22.0163 16.091 21.89 16.4462 21.7412 16.7924C21.5924 17.1387 21.4369 17.4495 21.2746 17.7248C21.1123 18 20.9635 18.2331 20.8282 18.424C20.693 18.6149 20.5555 18.7947 20.4157 18.9634C20.2759 19.1321 20.0992 19.3221 19.8855 19.5334C19.6708 19.7439 19.5537 19.8593 19.5338 19.8797C19.5131 19.8992 19.4247 19.9721 19.2687 20.0981C19.1136 20.225 18.9468 20.352 18.7682 20.479C18.5906 20.6051 18.4274 20.7103 18.2786 20.7947C18.1298 20.8791 17.9504 20.9754 17.7403 21.0837C17.5311 21.1929 17.3047 21.2941 17.0613 21.3873C16.8178 21.4805 16.5609 21.5672 16.2904 21.647C16.0198 21.727 15.7583 21.7891 15.5059 21.8335C15.2534 21.8779 14.9671 21.9156 14.647 21.9468L14.1668 21.9933V22H13.2876V21.9933L13.1727 21.9867C13.096 21.9822 13.0329 21.9778 12.9833 21.9734C12.9337 21.969 12.7466 21.9445 12.422 21.9001C12.0974 21.8557 11.8427 21.8113 11.6578 21.7669C11.473 21.7225 11.1979 21.6382 10.8327 21.5139C10.4675 21.3896 10.1551 21.264 9.8954 21.137C9.63662 21.0109 9.47431 20.931 9.40847 20.8972C9.34355 20.8644 9.27052 20.8236 9.18936 20.7747L9.06763 20.7015L9.06494 20.6975L9.06086 20.6948L9.05681 20.6922L9.0541 20.6881L9.04058 20.6815L9.02705 20.6748L9.02436 20.6708L9.02029 20.6681L9.01623 20.6655L9.01352 20.6615L9.01084 20.6575L9.00677 20.6548H9V20.6282L9.01352 20.6309L9.02705 20.6348L9.08791 20.6415C9.1285 20.6459 9.23896 20.6526 9.4193 20.6615C9.59965 20.6704 9.79125 20.6704 9.99414 20.6615C10.197 20.6526 10.4044 20.6326 10.6163 20.6016C10.8282 20.5705 11.0785 20.5172 11.367 20.4417C11.6556 20.3663 11.9207 20.2766 12.1623 20.1727C12.4031 20.0679 12.5744 19.9898 12.6763 19.9383C12.7773 19.8877 12.9315 19.7936 13.1389 19.6559L13.45 19.4495L13.4527 19.4455L13.4567 19.4429L13.4608 19.4402L13.4635 19.4362L13.4662 19.4321L13.4702 19.4295L13.4743 19.4268L13.477 19.4229L13.4905 19.4189L13.5041 19.4162L13.5068 19.4029L13.5108 19.3895L13.5149 19.3869L13.5176 19.3829L13.4094 19.3763C13.3372 19.3719 13.2674 19.3673 13.1997 19.3629C13.1321 19.3585 13.0262 19.3385 12.8819 19.303C12.7376 19.2674 12.5821 19.2142 12.4152 19.1432C12.2484 19.0722 12.0861 18.9878 11.9283 18.8901C11.7705 18.7925 11.6564 18.7112 11.5861 18.6464C11.5167 18.5825 11.4265 18.4919 11.3156 18.3747C11.2056 18.2566 11.11 18.1354 11.0289 18.0111C10.9477 17.8868 10.8702 17.7434 10.7962 17.5809L10.684 17.3385L10.6772 17.3185L10.6704 17.2985L10.6664 17.2853L10.6637 17.2719L10.684 17.2745L10.7042 17.2786L10.853 17.2985C10.9522 17.3119 11.1078 17.3163 11.3197 17.3119C11.5316 17.3075 11.6781 17.2986 11.7592 17.2853C11.8404 17.2719 11.89 17.263 11.908 17.2586L11.9351 17.252L11.9689 17.2453L12.0027 17.2386L12.0054 17.2347L12.0095 17.2319L12.0135 17.2293L12.0162 17.2253L11.9892 17.2187L11.9621 17.212L11.9351 17.2053L11.908 17.1986L11.881 17.192C11.8629 17.1876 11.8314 17.1787 11.7863 17.1653C11.7412 17.1521 11.6195 17.1032 11.4211 17.0189C11.2227 16.9345 11.0649 16.8524 10.9477 16.7725C10.8302 16.6923 10.7181 16.6047 10.6123 16.5101C10.5068 16.4142 10.3909 16.2908 10.2646 16.1399C10.1384 15.9889 10.0257 15.8135 9.92651 15.6137C9.82732 15.4139 9.75293 15.2231 9.70333 15.041C9.65394 14.8601 9.62135 14.6751 9.60596 14.4883L9.5816 14.2087L9.59513 14.2113L9.60865 14.2153L9.62219 14.222L9.63571 14.2286L9.64923 14.2353L9.66276 14.242L9.87241 14.3352C10.0122 14.3973 10.1858 14.4506 10.3931 14.495C10.6006 14.5394 10.7245 14.5638 10.7651 14.5682L10.826 14.5749H10.9477L10.945 14.5709L10.9409 14.5682L10.9369 14.5656L10.9342 14.5616L10.9315 14.5576L10.9274 14.555L10.9234 14.5523L10.9207 14.5483L10.9071 14.5416L10.8936 14.535L10.8909 14.531L10.8868 14.5283L10.8828 14.5257L10.8801 14.5217L10.8665 14.515L10.853 14.5083L10.8503 14.5044C10.8476 14.5026 10.8088 14.4741 10.734 14.4191C10.66 14.3632 10.5825 14.2908 10.5014 14.202C10.4202 14.1132 10.339 14.02 10.2579 13.9223C10.1766 13.8244 10.1042 13.7197 10.0415 13.6093C9.97837 13.4983 9.91163 13.3572 9.8413 13.1858C9.77187 13.0153 9.71912 12.8435 9.68305 12.6704C9.64699 12.4972 9.6267 12.3263 9.62219 12.1576C9.61768 11.9889 9.62218 11.8446 9.63571 11.7248C9.64923 11.6049 9.67628 11.4695 9.71687 11.3185C9.75744 11.1676 9.81606 11.0078 9.89269 10.8391L10.0077 10.586L10.0144 10.566L10.0212 10.5461L10.0253 10.5434L10.028 10.5394L10.0307 10.5354L10.0347 10.5327L10.0388 10.5354L10.0415 10.5394L10.0442 10.5434L10.0482 10.5461L10.0523 10.5487L10.055 10.5527L10.0577 10.5567L10.0618 10.5594L10.0685 10.5727L10.0753 10.586L10.0794 10.5887L10.0821 10.5927L10.2646 10.7925C10.3864 10.9256 10.5307 11.0744 10.6975 11.2386C10.8643 11.4029 10.9567 11.4881 10.9747 11.4943C10.9928 11.5014 11.0153 11.5219 11.0424 11.5556C11.0694 11.5885 11.1596 11.667 11.3129 11.7913C11.4662 11.9156 11.6668 12.0599 11.9148 12.2242C12.1628 12.3884 12.4378 12.5505 12.7399 12.7103C13.0419 12.8701 13.3666 13.0144 13.7137 13.1432C14.0609 13.2719 14.3043 13.3563 14.4441 13.3962C14.5839 13.4362 14.8228 13.4872 15.1609 13.5494C15.4991 13.6116 15.7538 13.6515 15.9251 13.6693C16.0965 13.687 16.2137 13.6972 16.2768 13.6999L16.3715 13.7026L16.3688 13.6826L16.3648 13.6626L16.3377 13.4961C16.3196 13.3851 16.3106 13.2297 16.3106 13.03C16.3106 12.8302 16.3265 12.646 16.358 12.4773C16.3895 12.3085 16.4369 12.1376 16.5 11.9645C16.5631 11.7913 16.6249 11.6524 16.6853 11.5476C16.7466 11.4437 16.8268 11.3252 16.9261 11.192C17.0252 11.0588 17.1538 10.9212 17.3116 10.7791C17.4694 10.6371 17.6497 10.5105 17.8526 10.3996C18.0554 10.2886 18.2425 10.2042 18.4138 10.1465C18.5852 10.0888 18.7295 10.0511 18.8467 10.0333C18.9639 10.0155 19.0226 10.0053 19.0226 10.0027Z" fill="#5B5F62"/>
</svg>
