<svg width="45" height="38" viewBox="0 0 45 38" fill="none" xmlns="http://www.w3.org/2000/svg">
<path d="M5.29032 17.6213V17.0697H8.78387V21.2375C8.78387 22.1364 8.51419 22.7983 7.97484 23.2233C7.43548 23.6564 6.70817 23.8729 5.7929 23.8729C5.25355 23.8729 4.73462 23.734 4.23613 23.4562C3.74581 23.1865 3.50065 22.8147 3.50065 22.3407C3.50065 22.2508 3.52925 22.12 3.58645 21.9484L4.00323 20.8697C3.28409 20.551 2.70387 20.0116 2.26258 19.2516C1.82946 18.4916 1.6129 17.6377 1.6129 16.6897C1.6129 15.3985 1.98065 14.328 2.71613 13.4781C3.45978 12.6282 4.48946 12.2033 5.80516 12.2033C6.4671 12.2033 7.10452 12.334 7.71742 12.5955C8.33032 12.857 8.63677 13.1676 8.63677 13.5271C8.63677 13.6661 8.59183 13.8254 8.50194 14.0052L7.81548 15.1329L7.37419 14.9858L7.43548 14.5323C7.46817 14.3362 7.48452 14.1482 7.48452 13.9684C7.48452 13.6497 7.32925 13.3719 7.01871 13.1349C6.70817 12.8979 6.30366 12.7794 5.80516 12.7794C5.05333 12.7794 4.48129 13.1471 4.08903 13.8826C3.70495 14.6099 3.5129 15.5252 3.5129 16.6284C3.5129 17.7235 3.72129 18.6183 4.13806 19.3129C4.56301 19.9994 5.18 20.3426 5.98903 20.3426C6.31591 20.3426 6.63462 20.2772 6.94516 20.1465V17.6213H5.29032ZM5.35161 21.1516C5.06559 21.1516 4.79183 21.1149 4.53032 21.0413V21.4213C4.53032 22.3529 4.72645 22.9291 5.11871 23.1497C5.29849 23.2478 5.54366 23.2968 5.85419 23.2968C6.1729 23.2968 6.43441 23.1824 6.63871 22.9536C6.84301 22.7329 6.94516 22.3979 6.94516 21.9484V20.8329C6.45484 21.0454 5.92366 21.1516 5.35161 21.1516Z" fill="#313131"/>
<path d="M20.2329 4.90968V4.41935H23.1503L25.5897 12.5097H26.2026V13H23.04V12.5097H23.751L23.2974 11.0019H19.9633L19.522 12.5097H20.2329V13H18.1613V12.5097H18.7742L21.0665 4.90968H20.2329ZM21.6181 5.43677L20.1349 10.4503H23.1258L21.6181 5.43677Z" fill="#313131"/>
<path d="M39.5516 13.4904H39.429V21.0904H40.6548V21.5807H36.3645V21.0904H37.5903V13.4904H37.4677C36.9284 13.4904 36.5565 13.5435 36.3522 13.6497C36.1561 13.756 36.0213 13.9929 35.9477 14.3607L35.7026 15.5742H35.2245L34.8935 13.5149C34.8935 13.3514 34.9303 13.2329 35.0038 13.1594C35.0774 13.0777 35.155 13.0327 35.2368 13.0246C35.3266 13.0082 35.4615 13 35.6413 13H41.378C41.5578 13 41.6886 13.0082 41.7703 13.0246C41.8602 13.0327 41.9419 13.0777 42.0155 13.1594C42.089 13.2329 42.1258 13.3514 42.1258 13.5149L41.7948 15.5742H41.3168L41.0716 14.3607C40.998 13.9929 40.8591 13.756 40.6548 13.6497C40.4587 13.5435 40.0909 13.4904 39.5516 13.4904Z" fill="#313131"/>
<path d="M20.2329 33.8387H14.729V33.3484H15.4645V25.7484H14.729V25.2581H19.9877C20.1675 25.2581 20.2983 25.2663 20.38 25.2826C20.4699 25.2908 20.5516 25.3357 20.6252 25.4175C20.6987 25.491 20.7355 25.6095 20.7355 25.7729L20.4045 27.8323H19.9265L19.6813 26.6187C19.6077 26.251 19.4688 26.014 19.2645 25.9078C19.0684 25.8015 18.7006 25.7484 18.1613 25.7484H17.3032V29.9407H20.1226V30.4923H17.3032V33.3484H18.4065C18.9376 33.3484 19.3013 33.2953 19.4974 33.1891C19.7017 33.0828 19.8447 32.8458 19.9265 32.4781L20.1716 31.3871H20.6497L20.9806 33.3239C20.9806 33.4873 20.9439 33.6099 20.8703 33.6916C20.7968 33.7652 20.7151 33.8101 20.6252 33.8265C20.5434 33.8347 20.4127 33.8387 20.2329 33.8387Z" fill="#313131"/>
<path d="M25.3813 32.2575C25.3813 32.5762 25.5366 32.854 25.8471 33.091C26.1576 33.328 26.5581 33.4465 27.0484 33.4465C27.5387 33.4465 27.9269 33.328 28.2129 33.091C28.4989 32.854 28.6419 32.5394 28.6419 32.1471C28.6419 31.6486 28.3437 31.2359 27.7471 30.9091L25.9329 29.9407C24.8869 29.3768 24.3639 28.5719 24.3639 27.5258C24.3639 26.8557 24.609 26.2796 25.0994 25.7975C25.5897 25.3153 26.3211 25.0742 27.2936 25.0742C27.9473 25.0742 28.5684 25.205 29.1568 25.4665C29.7452 25.728 30.0394 26.0385 30.0394 26.3981C30.0394 26.537 29.9944 26.6964 29.9045 26.8762L29.3161 28.0039L28.8871 27.8691V26.8394C28.8871 26.4716 28.7237 26.1815 28.3968 25.9691C28.0781 25.7566 27.694 25.6504 27.2445 25.6504C26.8032 25.6504 26.4641 25.7811 26.2271 26.0426C25.9901 26.3041 25.8716 26.6024 25.8716 26.9375C25.8716 27.6076 26.174 28.102 26.7787 28.4207L28.3355 29.242C29.5204 29.863 30.1129 30.6803 30.1129 31.6936C30.1129 32.4618 29.8228 33.042 29.2426 33.4342C28.6705 33.8265 27.9432 34.0226 27.0607 34.0226C26.3987 34.0226 25.7613 33.8919 25.1484 33.6304C24.5355 33.3689 24.229 33.0583 24.229 32.6987C24.229 32.5598 24.274 32.4005 24.3639 32.2207L24.9523 31.0929L25.3813 31.2278V32.2575Z" fill="#313131"/>
<path d="M1.30646 3.37097L17.6204 17.3953C18.2135 17.9051 18.1839 18.8324 17.5596 19.3034L1.30646 31.5645" stroke="black" stroke-width="1.83871"/>
<path d="M43.5968 3.06445L27.2828 17.0887C26.6898 17.5986 26.7193 18.5259 27.3437 18.9969L43.5968 31.258" stroke="black" stroke-width="1.83871"/>
</svg>
