<svg width="97" height="84" viewBox="0 0 97 84" fill="none" xmlns="http://www.w3.org/2000/svg">
<path d="M10.4839 39.2156V37.9963H18.2064V47.2092C18.2064 49.1963 17.6103 50.6595 16.4181 51.5988C15.2258 52.5563 13.6181 53.035 11.5948 53.035C10.4026 53.035 9.25548 52.7279 8.15355 52.1137C7.06968 51.5176 6.52774 50.6956 6.52774 49.6479C6.52774 49.4492 6.59097 49.1601 6.71742 48.7808L7.63871 46.3963C6.04903 45.6917 4.76645 44.4995 3.79097 42.8195C2.83355 41.1395 2.35484 39.2517 2.35484 37.1563C2.35484 34.3021 3.16774 31.9356 4.79355 30.0569C6.43742 28.1782 8.71355 27.2388 11.6219 27.2388C13.0852 27.2388 14.4942 27.5279 15.849 28.1059C17.2039 28.684 17.8813 29.3705 17.8813 30.1653C17.8813 30.4724 17.7819 30.8247 17.5832 31.2221L16.0658 33.715L15.0903 33.3898L15.2258 32.3872C15.2981 31.9537 15.3342 31.5382 15.3342 31.1408C15.3342 30.4363 14.991 29.8221 14.3045 29.2982C13.6181 28.7743 12.7239 28.5124 11.6219 28.5124C9.96 28.5124 8.69548 29.3253 7.82839 30.9511C6.97935 32.5588 6.55484 34.5821 6.55484 37.0208C6.55484 39.4414 7.01548 41.4195 7.93677 42.955C8.87613 44.4724 10.24 45.2311 12.0284 45.2311C12.751 45.2311 13.4555 45.0866 14.1419 44.7976V39.2156H10.4839ZM10.6194 47.0195C9.9871 47.0195 9.38193 46.9382 8.80387 46.7756V47.6156C8.80387 49.675 9.23742 50.9485 10.1045 51.4363C10.5019 51.653 11.0439 51.7614 11.7303 51.7614C12.4348 51.7614 13.0129 51.5085 13.4645 51.0027C13.9161 50.515 14.1419 49.7743 14.1419 48.7808V46.315C13.0581 46.7846 11.8839 47.0195 10.6194 47.0195Z" fill="white"/>
<path d="M43.5149 11.1161V10.0323H49.9639L55.3562 27.9161H56.711V29H49.7201V27.9161H51.2917L50.2891 24.5832H42.9188L41.9433 27.9161H43.5149V29H38.9355V27.9161H40.2904L45.3575 11.1161H43.5149ZM46.5768 12.2813L43.2981 23.3639H49.9097L46.5768 12.2813Z" fill="white"/>
<path d="M86.2193 30.0837H85.9484V46.8837H88.658V47.9675H79.1742V46.8837H81.8839V30.0837H81.6129C80.4206 30.0837 79.5987 30.2011 79.1471 30.4359C78.7135 30.6708 78.4155 31.1946 78.2529 32.0075L77.711 34.6901H76.6542L75.9226 30.1379C75.9226 29.7766 76.0039 29.5146 76.1664 29.352C76.329 29.1714 76.5006 29.072 76.6813 29.054C76.88 29.0179 77.178 28.9998 77.5755 28.9998H90.2568C90.6542 28.9998 90.9432 29.0179 91.1239 29.054C91.3226 29.072 91.5032 29.1714 91.6658 29.352C91.8284 29.5146 91.9097 29.7766 91.9097 30.1379L91.178 34.6901H90.1213L89.5793 32.0075C89.4168 31.1946 89.1097 30.6708 88.658 30.4359C88.2245 30.2011 87.4116 30.0837 86.2193 30.0837Z" fill="white"/>
<path d="M43.5149 75.0642H31.3484V73.9803H32.9742V57.1803H31.3484V56.0965H42.9729C43.3704 56.0965 43.6594 56.1145 43.84 56.1507C44.0388 56.1687 44.2194 56.2681 44.382 56.4487C44.5446 56.6113 44.6258 56.8732 44.6258 57.2345L43.8942 61.7868H42.8375L42.2955 59.1042C42.1329 58.2913 41.8259 57.7674 41.3742 57.5326C40.9407 57.2978 40.1278 57.1803 38.9355 57.1803H37.0388V66.4474H43.271V67.6668H37.0388V73.9803H39.4775C40.6517 73.9803 41.4555 73.8629 41.8891 73.6281C42.3407 73.3932 42.6568 72.8694 42.8375 72.0565L43.3794 69.6449H44.4362L45.1678 73.9261C45.1678 74.2874 45.0865 74.5584 44.9239 74.739C44.7613 74.9016 44.5807 75.001 44.382 75.0371C44.2013 75.0552 43.9123 75.0642 43.5149 75.0642Z" fill="white"/>
<path d="M54.8956 71.5687C54.8956 72.2732 55.2388 72.8874 55.9253 73.4113C56.6117 73.9352 57.4969 74.1971 58.5808 74.1971C59.6646 74.1971 60.5227 73.9352 61.155 73.4113C61.7872 72.8874 62.1033 72.192 62.1033 71.3249C62.1033 70.2229 61.444 69.3107 60.1253 68.5881L56.115 66.4474C53.8027 65.201 52.6466 63.4216 52.6466 61.1094C52.6466 59.6281 53.1885 58.3545 54.2724 57.2887C55.3562 56.2229 56.973 55.69 59.1227 55.69C60.5679 55.69 61.9408 55.9791 63.2414 56.5571C64.5421 57.1352 65.1924 57.8216 65.1924 58.6165C65.1924 58.9236 65.093 59.2758 64.8943 59.6732L63.5937 62.1661L62.6453 61.8681V59.592C62.6453 58.7791 62.284 58.1378 61.5614 57.6681C60.8569 57.1984 60.0079 56.9636 59.0143 56.9636C58.0388 56.9636 57.2891 57.2526 56.7653 57.8307C56.2414 58.4087 55.9795 59.0681 55.9795 59.8087C55.9795 61.29 56.6479 62.3829 57.9846 63.0874L61.4259 64.9029C64.0453 66.2758 65.355 68.0823 65.355 70.3223C65.355 72.0203 64.7137 73.3029 63.4311 74.17C62.1666 75.0371 60.5588 75.4707 58.6079 75.4707C57.1446 75.4707 55.7356 75.1816 54.3808 74.6036C53.0259 74.0255 52.3485 73.339 52.3485 72.5442C52.3485 72.2371 52.4479 71.8849 52.6466 71.4874L53.9472 68.9945L54.8956 69.2926V71.5687Z" fill="white"/>
<path d="M1.67725 7.4519L37.7397 38.453C39.0507 39.5799 38.9853 41.6298 37.6052 42.6709L1.67725 69.7745" stroke="white" stroke-width="4.06452"/>
<path d="M95.1614 6.77417L59.0989 37.7752C57.7879 38.9022 57.8533 40.9521 59.2334 41.9932L95.1614 69.0967" stroke="white" stroke-width="4.06452"/>
</svg>
